<svg width="155" height="154" viewBox="0 0 155 154" fill="none" xmlns="http://www.w3.org/2000/svg">
<path d="M77.4419 151.42C118.543 151.42 151.862 118.101 151.862 77C151.862 35.8988 118.543 2.57959 77.4419 2.57959C36.3406 2.57959 3.02148 35.8988 3.02148 77C3.02148 118.101 36.3406 151.42 77.4419 151.42Z" fill="#FFF491"/>
<path d="M77.4414 5.15913C117.038 5.15913 149.282 37.4037 149.282 77C149.282 116.596 117.038 148.841 77.4414 148.841C37.8451 148.841 5.60054 116.596 5.60054 77C5.60054 37.4037 37.8451 5.15913 77.4414 5.15913ZM77.4414 0C35.0076 0 0.441406 34.4372 0.441406 77C0.441406 119.434 34.8786 154 77.4414 154C120.004 154 154.441 119.563 154.441 77C154.312 34.4372 119.875 0 77.4414 0Z" fill="#A0813C"/>
<path d="M101.897 71.4695H101.751C98.5999 71.8357 95.5224 73.0078 92.8845 74.7658L91.932 75.4251C91.7121 75.5716 91.3458 75.4983 91.1992 75.2786C91.1259 75.2053 91.1259 75.0588 91.1259 74.9856V50.3729C91.1259 46.8568 88.2682 44 84.7511 44C81.2339 44 78.3762 46.8568 78.3762 50.2997V67.8069C76.6909 67.5139 75.0056 67.8801 73.6134 68.9057C72.2212 67.8801 70.5359 67.5139 68.8506 67.8069V61.8735C68.8506 60.1887 68.1911 58.6504 66.9455 57.4784C65.7731 56.3063 64.0878 55.7203 62.4757 55.7936C59.1784 56.0133 56.6871 58.7969 56.6871 62.02V94.0311C56.6871 95.3496 57.0534 96.6681 57.7129 97.8402C56.3207 99.0855 55.4414 100.844 55.4414 102.602V104.213C55.4414 107.436 58.0793 110 61.2301 110H86.5829C89.807 110 92.3716 107.363 92.3716 104.213V102.602C92.3716 101.43 92.0052 100.257 91.2725 99.232C91.7854 98.646 92.1518 97.9867 92.5182 97.3274L92.6647 96.9612C95.156 91.687 98.8197 87.0721 103.363 83.4095L105.854 81.6515C107.026 80.7725 107.832 79.5272 108.126 78.0622C108.492 76.3041 107.979 74.4728 106.733 73.1543C105.561 71.909 103.729 71.2497 101.897 71.4695ZM76.3246 74.1065C76.3246 73.5205 76.7642 73.081 77.3504 73.081C77.9366 73.081 78.3762 73.5205 78.3762 74.1065V81.212C78.3762 81.798 77.9366 82.2375 77.3504 82.2375C76.7642 82.2375 76.3246 81.798 76.3246 81.212V74.1065ZM68.9239 74.1065C68.9239 73.5205 69.3635 73.081 69.9497 73.081C70.5359 73.081 70.9755 73.5205 70.9755 74.1065V81.212C70.9755 81.798 70.5359 82.2375 69.9497 82.2375C69.3635 82.2375 68.9239 81.798 68.9239 81.212V74.1065ZM87.1691 104.213C87.1691 104.506 86.9493 104.726 86.6562 104.726H61.2301C60.937 104.726 60.7171 104.506 60.7171 104.213V102.602C60.7171 102.309 60.937 102.089 61.2301 102.089H86.5829C86.876 102.089 87.0959 102.309 87.0959 102.602L87.1691 104.213ZM102.996 77.1099C102.996 77.2564 102.923 77.4029 102.777 77.4761L100.285 79.2342C94.9362 83.4095 90.6863 88.8302 87.8286 94.9834L87.7553 95.2764C87.3157 96.2286 86.3631 96.8147 85.3373 96.8147H64.674C63.2085 96.8147 62.0361 95.6426 62.0361 94.1776V62.1665C62.0361 61.727 62.3292 61.2875 62.7688 61.2142C62.9886 61.2142 63.2085 61.2875 63.355 61.434C63.5016 61.5805 63.5748 61.8002 63.5748 62.02V81.2852C63.5748 84.8013 66.3593 87.5849 69.8764 87.6582C71.1954 87.6582 72.5143 87.2186 73.6134 86.4129C76.3978 88.4639 80.3546 87.8779 82.4063 85.0211C83.2123 83.9223 83.652 82.6038 83.652 81.2852V50.2997C83.652 49.7137 84.0916 49.2741 84.6778 49.2741C85.264 49.2741 85.7037 49.7137 85.7037 50.2997V74.9856C85.7037 75.7913 85.8502 76.5971 86.2166 77.3296C84.8976 77.9156 84.3114 79.5272 84.8976 80.8457C85.3373 81.798 86.2898 82.384 87.3157 82.384C87.389 82.384 87.4622 82.384 87.6088 82.384C90.1734 82.091 92.5914 81.212 94.7897 79.8202L95.7422 79.1609C97.7206 77.8424 99.9921 76.9634 102.337 76.6704H102.483C102.63 76.6704 102.703 76.6704 102.777 76.7436C102.996 76.8901 102.996 77.0366 102.996 77.1099Z" fill="#A0813C"/>
</svg>
