<svg width="119" height="119" viewBox="0 0 119 119" fill="none" xmlns="http://www.w3.org/2000/svg">
<circle cx="59.5" cy="59.5" r="59.5" fill="#F4F5F9"/>
<path d="M89.6578 46.3033C88.9076 45.0892 87.6059 44.3635 86.1782 44.3635H79.9315L80.2457 43.0659C80.6032 41.5924 80.2702 40.0648 79.3342 38.8744C78.3966 37.6832 76.991 37 75.475 37H55.9094C55.0062 37 54.2731 37.7331 54.2731 38.6363C54.2731 39.5396 55.0062 40.2727 55.9094 40.2727H75.475C75.9798 40.2727 76.4486 40.5001 76.7611 40.8977C77.0737 41.2954 77.1849 41.8034 77.0655 42.2943L75.3743 49.2724H50.1823C49.279 49.2724 48.5459 50.0055 48.5459 50.9088C48.5459 51.812 49.279 52.5451 50.1823 52.5451H74.5807L74.5333 52.7415C72.9256 59.3702 67.0405 63.9994 60.2211 63.9994H59.7793C52.9591 63.9994 47.0749 59.3702 45.4672 52.7415L44.2293 47.6361H71.4218C72.325 47.6361 73.0581 46.903 73.0581 45.9998C73.0581 45.0965 72.325 44.3635 71.4218 44.3635H43.4365L42.935 42.2943C42.8155 41.8034 42.9268 41.2945 43.2393 40.8977C43.5519 40.5009 44.0207 40.2727 44.5255 40.2727H46.0914C46.9947 40.2727 47.7278 39.5396 47.7278 38.6363C47.7278 37.7331 46.9947 37 46.0914 37H44.5255C43.0094 37 41.6038 37.6832 40.6662 38.8744C39.7294 40.0648 39.3972 41.5924 39.7548 43.0659L40.0689 44.3635H33.8223C32.3946 44.3635 31.0929 45.0892 30.3426 46.3033C29.5915 47.5175 29.5245 49.0057 30.1626 50.2837L32.3913 54.7402C33.2283 56.4142 34.9112 57.4541 36.7824 57.4541H39.5461C40.4494 57.4541 41.1825 56.721 41.1825 55.8178C41.1825 54.9145 40.4494 54.1814 39.5461 54.1814H36.7824C36.1581 54.1814 35.5977 53.8345 35.3187 53.2774L33.09 48.8208C32.9051 48.4526 33.054 48.1417 33.126 48.0248C33.198 47.9078 33.4107 47.6361 33.8223 47.6361H40.8626L42.2878 53.5138C43.821 59.8374 48.5468 64.658 54.5087 66.4752C55.5069 71.2369 55.5306 77.1825 54.5774 81.9998H53.4549C51.1992 81.9998 49.3641 83.8349 49.3641 86.0906V86.9088C49.3641 89.1645 51.1992 90.9996 53.4549 90.9996H66.5455C68.8012 90.9996 70.6363 89.1645 70.6363 86.9088V86.0906C70.6363 83.8349 68.8012 81.9998 66.5455 81.9998H65.4091C64.7317 78.5742 64.5296 74.5308 64.8634 70.6871C64.9419 69.7871 64.2751 68.9943 63.3751 68.9157C62.4752 68.8233 61.6815 69.504 61.6038 70.404C61.2635 74.3082 61.4451 78.4179 62.0841 81.9998H57.9172C58.7558 77.3215 58.7803 71.893 57.9843 67.1755C58.5766 67.2336 59.1739 67.272 59.7793 67.272H60.2203C68.5558 67.272 75.7482 61.6144 77.7126 53.5138L79.1379 47.6361H86.1782C86.5897 47.6361 86.8024 47.9078 86.8744 48.0248C86.9464 48.1417 87.0953 48.4518 86.9104 48.8208L84.6818 53.2774C84.4028 53.8345 83.8423 54.1814 83.2181 54.1814H80.4543C79.5511 54.1814 78.818 54.9145 78.818 55.8178C78.818 56.721 79.5511 57.4541 80.4543 57.4541H83.2181C85.0892 57.4541 86.7722 56.4142 87.6091 54.7411L89.8378 50.2845C90.476 49.0057 90.4089 47.5175 89.6578 46.3033ZM66.5455 85.2716C66.9972 85.2716 67.3637 85.6382 67.3637 86.0898V86.908C67.3637 87.3596 66.9972 87.7261 66.5455 87.7261H53.4549C53.0033 87.7261 52.6368 87.3596 52.6368 86.908V86.0898C52.6368 85.6382 53.0033 85.2716 53.4549 85.2716H66.5455Z" fill="#6B7AFF"/>
<path d="M51.0006 40.2727C51.9043 40.2727 52.6369 39.54 52.6369 38.6363C52.6369 37.7326 51.9043 37 51.0006 37C50.0969 37 49.3643 37.7326 49.3643 38.6363C49.3643 39.54 50.0969 40.2727 51.0006 40.2727Z" fill="#6B7AFF"/>
</svg>
