<svg width="157" height="60" viewBox="0 0 157 60" fill="none" xmlns="http://www.w3.org/2000/svg">
<path d="M127 0H30C13.4315 0 0 13.4315 0 30C0 46.5685 13.4315 60 30 60H127C143.569 60 157 46.5685 157 30C157 13.4315 143.569 0 127 0Z" fill="#30313B" fill-opacity="0.3"/>
<path d="M38.3949 36V24.5469H42.1058C43.5121 24.5469 44.4287 24.6042 44.8558 24.7188C45.5121 24.8906 46.0616 25.2656 46.5043 25.8438C46.947 26.4167 47.1683 27.1589 47.1683 28.0703C47.1683 28.7734 47.0407 29.3646 46.7855 29.8438C46.5303 30.3229 46.2048 30.7005 45.8089 30.9766C45.4183 31.2474 45.0199 31.4271 44.6136 31.5156C44.0616 31.625 43.2621 31.6797 42.2152 31.6797H40.7074V36H38.3949ZM40.7074 26.4844V29.7344H41.973C42.8845 29.7344 43.4938 29.6745 43.8011 29.5547C44.1084 29.4349 44.348 29.2474 44.5199 28.9922C44.697 28.737 44.7855 28.4401 44.7855 28.1016C44.7855 27.6849 44.6631 27.3411 44.4183 27.0703C44.1735 26.7995 43.8636 26.6302 43.4886 26.5625C43.2126 26.5104 42.6579 26.4844 41.8246 26.4844H40.7074ZM50.6668 36V24.5469H59.1589V26.4844H52.9793V29.0234H58.7293V30.9531H52.9793V34.0703H59.3777V36H50.6668ZM62.9621 36V24.5469H65.2121L69.8996 32.1953V24.5469H72.048V36H69.7277L65.1105 28.5312V36H62.9621ZM76.0933 24.5469H80.3199C81.273 24.5469 81.9996 24.6198 82.4996 24.7656C83.1714 24.9635 83.747 25.3151 84.2261 25.8203C84.7053 26.3255 85.0699 26.9453 85.3199 27.6797C85.5699 28.4089 85.6949 29.3099 85.6949 30.3828C85.6949 31.3255 85.5777 32.138 85.3433 32.8203C85.0569 33.6536 84.648 34.3281 84.1168 34.8438C83.7157 35.2344 83.1741 35.5391 82.4918 35.7578C81.9813 35.9193 81.2991 36 80.4449 36H76.0933V24.5469ZM78.4058 26.4844V34.0703H80.1324C80.7782 34.0703 81.2444 34.0339 81.5308 33.9609C81.9058 33.8672 82.2157 33.7083 82.4605 33.4844C82.7105 33.2604 82.9136 32.8932 83.0699 32.3828C83.2261 31.8672 83.3043 31.1667 83.3043 30.2812C83.3043 29.3958 83.2261 28.7161 83.0699 28.2422C82.9136 27.7682 82.6949 27.3984 82.4136 27.1328C82.1324 26.8672 81.7756 26.6875 81.3433 26.5938C81.0204 26.5208 80.3876 26.4844 79.4449 26.4844H78.4058ZM89.1933 36V24.5469H91.5058V36H89.1933ZM95.3402 36V24.5469H97.5902L102.278 32.1953V24.5469H104.426V36H102.106L97.4886 28.5312V36H95.3402ZM113.807 31.7891V29.8594H118.792V34.4219C118.307 34.8906 117.604 35.3047 116.682 35.6641C115.766 36.0182 114.836 36.1953 113.893 36.1953C112.695 36.1953 111.651 35.9453 110.761 35.4453C109.87 34.9401 109.201 34.2214 108.753 33.2891C108.305 32.3516 108.081 31.3333 108.081 30.2344C108.081 29.0417 108.331 27.9818 108.831 27.0547C109.331 26.1276 110.063 25.4167 111.026 24.9219C111.761 24.5417 112.675 24.3516 113.768 24.3516C115.19 24.3516 116.3 24.651 117.096 25.25C117.899 25.8438 118.414 26.6667 118.643 27.7188L116.346 28.1484C116.185 27.5859 115.88 27.1432 115.432 26.8203C114.99 26.4922 114.435 26.3281 113.768 26.3281C112.758 26.3281 111.953 26.6484 111.354 27.2891C110.761 27.9297 110.464 28.8802 110.464 30.1406C110.464 31.5 110.766 32.5208 111.37 33.2031C111.974 33.8802 112.766 34.2188 113.745 34.2188C114.229 34.2188 114.714 34.125 115.198 33.9375C115.688 33.7448 116.107 33.513 116.456 33.2422V31.7891H113.807Z" fill="white"/>
</svg>
