<svg width="155" height="154" viewBox="0 0 155 154" fill="none" xmlns="http://www.w3.org/2000/svg">
<path d="M77.4419 151.42C118.543 151.42 151.862 118.101 151.862 77C151.862 35.8988 118.543 2.57959 77.4419 2.57959C36.3406 2.57959 3.02148 35.8988 3.02148 77C3.02148 118.101 36.3406 151.42 77.4419 151.42Z" fill="#53E5D7"/>
<path d="M77.4414 5.15913C117.038 5.15913 149.282 37.4037 149.282 77C149.282 116.596 117.038 148.841 77.4414 148.841C37.8451 148.841 5.60054 116.596 5.60054 77C5.60054 37.4037 37.8451 5.15913 77.4414 5.15913ZM77.4414 0C35.0076 0 0.441406 34.4372 0.441406 77C0.441406 119.434 34.8786 154 77.4414 154C119.875 154 154.441 119.563 154.441 77C154.312 34.4372 119.875 0 77.4414 0Z" fill="#0C7A7A"/>
<path d="M75.9523 120.603C78.2199 122.87 81.9993 122.87 84.2669 120.603L85.3251 119.544C86.6857 118.184 87.2904 116.37 86.988 114.556C88.3486 114.253 89.558 113.497 90.465 112.59L113.443 89.6118C115.862 87.193 115.862 83.2625 113.443 80.9949C113.292 80.8437 112.99 80.6926 112.839 80.3902L114.955 78.2738C117.525 75.7038 117.525 71.7733 114.955 69.2033C114.502 68.7498 113.897 68.2963 113.292 67.9939C114.048 64.5169 111.932 61.0399 108.455 60.2841C107.548 60.1329 106.489 60.1329 105.582 60.2841C104.071 57.1094 100.14 55.7488 96.9655 57.4118C96.3608 57.7141 95.7561 58.1676 95.3026 58.6212L91.5233 62.4005C90.9186 61.4935 90.0115 60.5864 88.9533 60.1329C88.651 59.9817 88.4998 59.9817 88.1974 59.8305L89.4068 57.1094C90.7674 53.9348 89.2556 50.1554 86.081 48.6437C85.4763 48.3413 84.7204 48.1901 84.1157 48.1901C84.1157 47.7366 83.9646 47.2831 83.8134 46.8296C82.4528 43.5037 78.8246 41.992 75.4988 43.2014C75.0453 43.3526 74.5918 43.6549 74.2894 43.8061C71.7195 41.3873 67.6378 41.6897 65.219 44.2596C64.7655 44.7131 64.3119 45.3178 64.1608 46.0737L55.2415 66.4822C55.2415 66.6334 54.9391 66.7845 54.788 66.7845C54.6368 66.7845 54.3344 66.7845 54.3344 66.4822L53.7298 65.5752C51.9157 62.854 49.6481 60.5864 46.7757 58.9235L46.6246 58.7723C43.9035 57.1094 40.4265 58.0164 38.7635 60.7376C38.4612 61.3423 38.1588 61.7958 38.1588 62.4005C37.8565 63.9122 38.1588 65.424 38.9147 66.6334L40.4264 69.3545C43.1476 74.4944 44.6593 80.239 44.9617 86.1348V86.5884C44.9617 87.3442 45.1128 88.1001 45.264 88.7048C44.2058 89.3095 43.4499 90.2165 42.9964 91.4259L42.3917 92.9377C41.0311 95.9611 42.3917 99.4381 45.4152 100.648L64.4631 108.962L75.9523 120.603ZM81.697 115.009C81.8481 115.16 81.8481 115.614 81.697 115.765L80.6387 116.823C80.4876 116.974 80.034 116.974 79.8829 116.823L61.742 98.6823C61.5908 98.5311 61.5908 98.0776 61.742 97.9264L62.0443 97.6241C62.1955 97.4729 62.4978 97.3217 62.649 97.0194L62.9514 96.717C63.1026 96.5658 63.5561 96.5658 63.7073 96.717L81.697 115.009ZM99.2331 62.2493C99.6867 61.7958 100.291 61.7958 100.745 62.2493C101.198 62.7028 101.198 63.3075 100.745 63.7611L90.1627 74.3432C89.1045 75.4015 89.1045 77.0644 90.1627 78.1226C91.2209 79.1808 92.8838 79.1808 93.9421 78.1226L106.338 65.7263C106.792 65.2728 107.397 65.2728 107.85 65.7263C108.304 66.1799 108.304 66.7845 107.85 67.2381L95.4538 79.6343C94.3956 80.6926 94.3956 82.3555 95.4538 83.4137C96.512 84.4719 98.1749 84.4719 99.2331 83.4137L109.815 72.8315C110.269 72.378 110.874 72.378 111.327 72.8315C111.781 73.285 111.781 73.8897 111.327 74.3432L97.419 88.2513C96.3608 89.3095 96.3608 90.9724 97.419 92.0306C98.4773 93.0888 100.14 93.0888 101.198 92.0306L108.757 84.4719C109.059 84.1696 109.513 84.1696 109.815 84.4719C110.118 84.7743 110.118 85.2278 109.815 85.5301L86.8369 108.509C85.7786 109.567 84.1157 109.567 83.0575 108.509L68.2425 93.6935C67.4866 92.9377 67.3354 91.8794 67.6378 90.9724L67.7889 90.67C70.2077 84.1696 70.9636 77.3667 70.2077 70.5639L69.7542 67.5404C69.7542 67.3892 69.7542 67.2381 69.9054 67.0869C69.9054 66.9357 70.0565 66.9357 70.2077 66.9357C70.3589 66.9357 70.5101 66.9357 70.5101 67.0869L70.6612 67.2381C72.173 69.2033 73.08 71.3198 73.5336 73.7386L73.6847 74.9479C74.2894 78.1226 77.4641 80.239 80.6387 79.6343C81.8481 79.4832 82.9063 78.8785 83.6622 77.9714L99.2331 62.2493ZM50.1016 86.5884V86.1348C49.9504 79.332 48.1363 72.5292 44.9617 66.4822L43.4499 63.7611C43.4499 63.6099 43.2987 63.4587 43.4499 63.3075C43.4499 63.1564 43.6011 63.1564 43.6011 63.0052C43.7523 63.0052 43.9034 63.0052 43.9034 63.0052L44.0546 63.1564C46.1711 64.3658 47.834 66.0287 49.1945 68.1451L49.7992 69.2033C51.9157 72.378 55.2415 74.7968 58.8697 75.855C60.2302 76.1573 61.742 75.2503 62.0443 73.8897C62.3467 72.5292 61.4396 71.0174 60.0791 70.7151C59.6255 70.5639 59.3232 70.4127 58.8697 70.2616C59.3232 69.808 59.7767 69.0522 60.0791 68.4475L68.9983 48.039C69.3007 47.4343 69.9054 47.2831 70.3589 47.4343C70.9636 47.7366 71.1148 48.3413 70.9636 48.7948L67.7889 56.0512C67.1843 57.4118 67.7889 58.9235 69.1495 59.5282C70.5101 60.1329 72.0218 59.5282 72.6265 58.1676L75.8012 50.9113L76.8594 48.4925C77.1617 47.8878 77.7664 47.7366 78.2199 47.8878C78.8246 48.1901 78.9758 48.7948 78.8247 49.2484L77.7664 51.6671L77.6153 52.1207L74.7429 58.7723C74.1382 60.1329 74.743 61.6446 76.1035 62.2493C77.4641 62.854 78.9758 62.2493 79.5805 60.8888L82.4528 54.2371L82.604 53.7836C82.9064 53.1789 83.511 53.0277 83.9646 53.1789C84.5693 53.4812 84.7204 54.0859 84.5692 54.5394L80.1852 64.8193C79.5805 66.1799 80.1852 67.6916 81.5458 68.2963C82.9063 68.901 84.4181 68.2963 85.0228 66.9357L85.9298 64.9705C86.081 64.8193 86.2322 64.6681 86.3834 64.5169C86.5345 64.3658 86.8369 64.3658 86.988 64.5169C87.4416 64.6681 87.5927 65.1216 87.4416 65.5752L86.988 66.6334L79.7317 73.8897C79.5805 74.0409 79.127 74.0409 78.9758 73.8897C78.9758 73.8897 78.8247 73.7386 78.8247 73.5874L78.6735 72.378C78.0688 69.2033 76.7082 66.1798 74.7429 63.6099L74.5918 63.4587C72.6265 61.0399 69.1495 60.4352 66.5795 62.4005C66.126 62.854 65.6725 63.3075 65.3702 63.7611C64.6143 64.9705 64.1608 66.4822 64.4631 67.9939L64.9166 71.0174C65.5213 76.9132 64.9166 82.809 62.9514 88.4024L62.8002 88.856C62.4979 89.6118 62.3467 90.2165 62.3467 90.9724C61.4396 91.1236 60.6838 91.4259 60.0791 91.8794L52.0668 88.4024C50.8574 88.5536 50.1016 87.6466 50.1016 86.5884ZM47.3805 95.6588C47.0781 95.5076 46.9269 95.2053 47.0781 94.9029L47.6828 93.3912C47.834 93.0888 48.1363 92.9377 48.4387 93.0888L49.6481 93.5424L56.4509 96.4147C56.1485 97.3217 56.1485 98.3799 56.2997 99.287L47.3805 95.6588Z" fill="#0C7A7A"/>
<path d="M114.501 39.8752C113.443 38.817 111.78 38.817 110.722 39.8752L104.977 45.6198C103.919 46.678 103.919 48.3409 104.977 49.3992C106.035 50.4574 107.698 50.4574 108.757 49.3992L114.501 43.6546C115.559 42.5963 115.559 40.9334 114.501 39.8752Z" fill="#0C7A7A"/>
<path d="M92.5816 32.0144C91.0698 32.1655 90.0116 33.3749 90.1628 34.8867L90.7675 42.5965C90.9187 44.1083 92.128 45.1665 93.6398 45.0153C95.1515 44.8642 96.2098 43.6548 96.0586 42.143L95.4539 34.4332C95.3027 32.9214 94.0933 31.8632 92.5816 32.0144Z" fill="#0C7A7A"/>
<path d="M101.805 33.6772L98.3279 42.7477C97.7232 44.1082 98.4791 45.62 99.8397 46.2247C101.2 46.8294 102.712 46.0735 103.317 44.7129L106.794 35.6425C107.247 34.2819 106.643 32.7702 105.282 32.1655C103.77 31.712 102.258 32.3167 101.805 33.6772Z" fill="#0C7A7A"/>
</svg>
