<svg width="184" height="60" viewBox="0 0 184 60" fill="none" xmlns="http://www.w3.org/2000/svg">
<path d="M154 0H30C13.4315 0 0 13.4315 0 30C0 46.5685 13.4315 60 30 60H154C170.569 60 184 46.5685 184 30C184 13.4315 170.569 0 154 0Z" fill="#30313B" fill-opacity="0.3"/>
<path d="M68.8334 32.2734L71.0834 32.0547C71.2188 32.8099 71.4923 33.3646 71.9037 33.7188C72.3204 34.0729 72.8803 34.25 73.5834 34.25C74.3282 34.25 74.8881 34.0938 75.2631 33.7812C75.6433 33.4635 75.8334 33.0938 75.8334 32.6719C75.8334 32.401 75.7527 32.1719 75.5912 31.9844C75.435 31.7917 75.1589 31.625 74.7631 31.4844C74.4923 31.3906 73.8751 31.224 72.9116 30.9844C71.672 30.6771 70.8022 30.2995 70.3022 29.8516C69.5991 29.2214 69.2475 28.4531 69.2475 27.5469C69.2475 26.9635 69.4116 26.4193 69.7397 25.9141C70.073 25.4036 70.5496 25.0156 71.1694 24.75C71.7944 24.4844 72.547 24.3516 73.4272 24.3516C74.8647 24.3516 75.9454 24.6667 76.6694 25.2969C77.3985 25.9271 77.7813 26.7682 77.8178 27.8203L75.5053 27.9219C75.4063 27.3333 75.1928 26.9115 74.8647 26.6562C74.5418 26.3958 74.0548 26.2656 73.4037 26.2656C72.7319 26.2656 72.2058 26.4036 71.8256 26.6797C71.5808 26.8568 71.4584 27.0938 71.4584 27.3906C71.4584 27.6615 71.573 27.8932 71.8022 28.0859C72.0938 28.3307 72.8022 28.5859 73.9272 28.8516C75.0522 29.1172 75.8829 29.3932 76.4194 29.6797C76.961 29.9609 77.3829 30.349 77.685 30.8438C77.9923 31.3333 78.1459 31.9401 78.1459 32.6641C78.1459 33.3203 77.9636 33.9349 77.5991 34.5078C77.2345 35.0807 76.7188 35.5078 76.0522 35.7891C75.3855 36.0651 74.5548 36.2031 73.56 36.2031C72.1121 36.2031 71.0001 35.8698 70.2241 35.2031C69.448 34.5312 68.9845 33.5547 68.8334 32.2734ZM81.6912 36V24.5469H90.1834V26.4844H84.0037V29.0234H89.7537V30.9531H84.0037V34.0703H90.4022V36H81.6912ZM93.9866 36V24.5469H96.2366L100.924 32.1953V24.5469H103.072V36H100.752L96.135 28.5312V36H93.9866ZM109.704 36V26.4844H106.305V24.5469H115.407V26.4844H112.016V36H109.704Z" fill="white"/>
</svg>
