<svg width="184" height="60" viewBox="0 0 184 60" fill="none" xmlns="http://www.w3.org/2000/svg">
<path d="M154 0H30C13.4315 0 0 13.4315 0 30C0 46.5685 13.4315 60 30 60H154C170.569 60 184 46.5685 184 30C184 13.4315 170.569 0 154 0Z" fill="#30313B" fill-opacity="0.3"/>
<path d="M31.1272 32.2734L33.3772 32.0547C33.5126 32.8099 33.786 33.3646 34.1975 33.7188C34.6142 34.0729 35.1741 34.25 35.8772 34.25C36.622 34.25 37.1819 34.0938 37.5569 33.7812C37.9371 33.4635 38.1272 33.0938 38.1272 32.6719C38.1272 32.401 38.0464 32.1719 37.885 31.9844C37.7287 31.7917 37.4527 31.625 37.0569 31.4844C36.786 31.3906 36.1688 31.224 35.2053 30.9844C33.9657 30.6771 33.0959 30.2995 32.5959 29.8516C31.8928 29.2214 31.5412 28.4531 31.5412 27.5469C31.5412 26.9635 31.7053 26.4193 32.0334 25.9141C32.3668 25.4036 32.8433 25.0156 33.4631 24.75C34.0881 24.4844 34.8407 24.3516 35.7209 24.3516C37.1584 24.3516 38.2392 24.6667 38.9631 25.2969C39.6923 25.9271 40.0751 26.7682 40.1116 27.8203L37.7991 27.9219C37.7001 27.3333 37.4866 26.9115 37.1584 26.6562C36.8355 26.3958 36.3485 26.2656 35.6975 26.2656C35.0256 26.2656 34.4996 26.4036 34.1194 26.6797C33.8746 26.8568 33.7522 27.0938 33.7522 27.3906C33.7522 27.6615 33.8668 27.8932 34.0959 28.0859C34.3876 28.3307 35.0959 28.5859 36.2209 28.8516C37.3459 29.1172 38.1767 29.3932 38.7131 29.6797C39.2548 29.9609 39.6767 30.349 39.9787 30.8438C40.286 31.3333 40.4397 31.9401 40.4397 32.6641C40.4397 33.3203 40.2574 33.9349 39.8928 34.5078C39.5282 35.0807 39.0126 35.5078 38.3459 35.7891C37.6793 36.0651 36.8485 36.2031 35.8537 36.2031C34.4058 36.2031 33.2938 35.8698 32.5178 35.2031C31.7418 34.5312 31.2782 33.5547 31.1272 32.2734ZM43.9694 24.5469H46.2819V30.75C46.2819 31.7344 46.3105 32.3724 46.3678 32.6641C46.4668 33.1328 46.7011 33.5104 47.0709 33.7969C47.4459 34.0781 47.9563 34.2188 48.6022 34.2188C49.2584 34.2188 49.7532 34.0859 50.0866 33.8203C50.4199 33.5495 50.6204 33.2188 50.6881 32.8281C50.7558 32.4375 50.7897 31.7891 50.7897 30.8828V24.5469H53.1022V30.5625C53.1022 31.9375 53.0397 32.9089 52.9147 33.4766C52.7897 34.0443 52.5579 34.5234 52.2194 34.9141C51.886 35.3047 51.4381 35.6172 50.8756 35.8516C50.3131 36.0807 49.5787 36.1953 48.6725 36.1953C47.5787 36.1953 46.748 36.0703 46.1803 35.8203C45.6178 35.5651 45.1725 35.237 44.8444 34.8359C44.5162 34.4297 44.3001 34.0052 44.1959 33.5625C44.0449 32.9062 43.9694 31.9375 43.9694 30.6562V24.5469ZM64.4756 31.7891L66.7178 32.5C66.3741 33.75 65.8011 34.6797 64.9991 35.2891C64.2022 35.8932 63.1892 36.1953 61.96 36.1953C60.4392 36.1953 59.1892 35.6771 58.21 34.6406C57.2308 33.599 56.7412 32.1771 56.7412 30.375C56.7412 28.4688 57.2334 26.9896 58.2178 25.9375C59.2022 24.8802 60.4964 24.3516 62.1006 24.3516C63.5017 24.3516 64.6397 24.7656 65.5147 25.5938C66.0355 26.0833 66.4261 26.7865 66.6866 27.7031L64.3975 28.25C64.2621 27.6562 63.9782 27.1875 63.5459 26.8438C63.1188 26.5 62.598 26.3281 61.9834 26.3281C61.1345 26.3281 60.4444 26.6328 59.9131 27.2422C59.3871 27.8516 59.1241 28.8385 59.1241 30.2031C59.1241 31.651 59.3845 32.6823 59.9053 33.2969C60.4261 33.9115 61.1032 34.2188 61.9366 34.2188C62.5511 34.2188 63.0798 34.0234 63.5225 33.6328C63.9652 33.2422 64.2829 32.6276 64.4756 31.7891ZM77.6381 31.7891L79.8803 32.5C79.5366 33.75 78.9636 34.6797 78.1616 35.2891C77.3647 35.8932 76.3517 36.1953 75.1225 36.1953C73.6017 36.1953 72.3517 35.6771 71.3725 34.6406C70.3933 33.599 69.9037 32.1771 69.9037 30.375C69.9037 28.4688 70.3959 26.9896 71.3803 25.9375C72.3647 24.8802 73.6589 24.3516 75.2631 24.3516C76.6642 24.3516 77.8022 24.7656 78.6772 25.5938C79.198 26.0833 79.5886 26.7865 79.8491 27.7031L77.56 28.25C77.4246 27.6562 77.1407 27.1875 76.7084 26.8438C76.2813 26.5 75.7605 26.3281 75.1459 26.3281C74.297 26.3281 73.6069 26.6328 73.0756 27.2422C72.5496 27.8516 72.2866 28.8385 72.2866 30.2031C72.2866 31.651 72.547 32.6823 73.0678 33.2969C73.5886 33.9115 74.2657 34.2188 75.0991 34.2188C75.7136 34.2188 76.2423 34.0234 76.685 33.6328C77.1277 33.2422 77.4454 32.6276 77.6381 31.7891ZM83.4725 36V24.5469H91.9647V26.4844H85.785V29.0234H91.535V30.9531H85.785V34.0703H92.1834V36H83.4725ZM95.1584 32.2734L97.4084 32.0547C97.5438 32.8099 97.8173 33.3646 98.2287 33.7188C98.6454 34.0729 99.2053 34.25 99.9084 34.25C100.653 34.25 101.213 34.0938 101.588 33.7812C101.968 33.4635 102.158 33.0938 102.158 32.6719C102.158 32.401 102.078 32.1719 101.916 31.9844C101.76 31.7917 101.484 31.625 101.088 31.4844C100.817 31.3906 100.2 31.224 99.2366 30.9844C97.997 30.6771 97.1272 30.2995 96.6272 29.8516C95.9241 29.2214 95.5725 28.4531 95.5725 27.5469C95.5725 26.9635 95.7366 26.4193 96.0647 25.9141C96.398 25.4036 96.8746 25.0156 97.4944 24.75C98.1194 24.4844 98.872 24.3516 99.7522 24.3516C101.19 24.3516 102.27 24.6667 102.994 25.2969C103.724 25.9271 104.106 26.7682 104.143 27.8203L101.83 27.9219C101.731 27.3333 101.518 26.9115 101.19 26.6562C100.867 26.3958 100.38 26.2656 99.7287 26.2656C99.0569 26.2656 98.5308 26.4036 98.1506 26.6797C97.9058 26.8568 97.7834 27.0938 97.7834 27.3906C97.7834 27.6615 97.898 27.8932 98.1272 28.0859C98.4188 28.3307 99.1272 28.5859 100.252 28.8516C101.377 29.1172 102.208 29.3932 102.744 29.6797C103.286 29.9609 103.708 30.349 104.01 30.8438C104.317 31.3333 104.471 31.9401 104.471 32.6641C104.471 33.3203 104.289 33.9349 103.924 34.5078C103.559 35.0807 103.044 35.5078 102.377 35.7891C101.711 36.0651 100.88 36.2031 99.885 36.2031C98.4371 36.2031 97.3251 35.8698 96.5491 35.2031C95.773 34.5312 95.3095 33.5547 95.1584 32.2734ZM107.43 32.2734L109.68 32.0547C109.816 32.8099 110.089 33.3646 110.501 33.7188C110.917 34.0729 111.477 34.25 112.18 34.25C112.925 34.25 113.485 34.0938 113.86 33.7812C114.24 33.4635 114.43 33.0938 114.43 32.6719C114.43 32.401 114.35 32.1719 114.188 31.9844C114.032 31.7917 113.756 31.625 113.36 31.4844C113.089 31.3906 112.472 31.224 111.508 30.9844C110.269 30.6771 109.399 30.2995 108.899 29.8516C108.196 29.2214 107.844 28.4531 107.844 27.5469C107.844 26.9635 108.008 26.4193 108.337 25.9141C108.67 25.4036 109.146 25.0156 109.766 24.75C110.391 24.4844 111.144 24.3516 112.024 24.3516C113.462 24.3516 114.542 24.6667 115.266 25.2969C115.995 25.9271 116.378 26.7682 116.415 27.8203L114.102 27.9219C114.003 27.3333 113.79 26.9115 113.462 26.6562C113.139 26.3958 112.652 26.2656 112.001 26.2656C111.329 26.2656 110.803 26.4036 110.422 26.6797C110.178 26.8568 110.055 27.0938 110.055 27.3906C110.055 27.6615 110.17 27.8932 110.399 28.0859C110.691 28.3307 111.399 28.5859 112.524 28.8516C113.649 29.1172 114.48 29.3932 115.016 29.6797C115.558 29.9609 115.98 30.349 116.282 30.8438C116.589 31.3333 116.743 31.9401 116.743 32.6641C116.743 33.3203 116.561 33.9349 116.196 34.5078C115.831 35.0807 115.316 35.5078 114.649 35.7891C113.982 36.0651 113.152 36.2031 112.157 36.2031C110.709 36.2031 109.597 35.8698 108.821 35.2031C108.045 34.5312 107.581 33.5547 107.43 32.2734ZM120.304 36V24.5469H128.155V26.4844H122.616V29.1953H127.397V31.1328H122.616V36H120.304ZM131.654 24.5469H133.966V30.75C133.966 31.7344 133.995 32.3724 134.052 32.6641C134.151 33.1328 134.386 33.5104 134.755 33.7969C135.13 34.0781 135.641 34.2188 136.287 34.2188C136.943 34.2188 137.438 34.0859 137.771 33.8203C138.104 33.5495 138.305 33.2188 138.372 32.8281C138.44 32.4375 138.474 31.7891 138.474 30.8828V24.5469H140.787V30.5625C140.787 31.9375 140.724 32.9089 140.599 33.4766C140.474 34.0443 140.242 34.5234 139.904 34.9141C139.57 35.3047 139.122 35.6172 138.56 35.8516C137.997 36.0807 137.263 36.1953 136.357 36.1953C135.263 36.1953 134.432 36.0703 133.865 35.8203C133.302 35.5651 132.857 35.237 132.529 34.8359C132.201 34.4297 131.984 34.0052 131.88 33.5625C131.729 32.9062 131.654 31.9375 131.654 30.6562V24.5469ZM144.894 36V24.6406H147.207V34.0703H152.957V36H144.894Z" fill="white"/>
</svg>
