<svg width="155" height="154" viewBox="0 0 155 154" fill="none" xmlns="http://www.w3.org/2000/svg">
<path d="M77.4419 151.42C118.543 151.42 151.862 118.101 151.862 77C151.862 35.8988 118.543 2.57959 77.4419 2.57959C36.3406 2.57959 3.02148 35.8988 3.02148 77C3.02148 118.101 36.3406 151.42 77.4419 151.42Z" fill="#89E8A6"/>
<path d="M77.4414 5.15913C117.038 5.15913 149.282 37.4037 149.282 77C149.282 116.596 117.038 148.841 77.4414 148.841C37.8451 148.841 5.60054 116.596 5.60054 77C5.60054 37.4037 37.8451 5.15913 77.4414 5.15913ZM77.4414 0C35.0076 0 0.441406 34.4372 0.441406 77C0.441406 119.434 34.8786 154 77.4414 154C120.004 154 154.441 119.563 154.441 77C154.312 34.4372 119.875 0 77.4414 0Z" fill="#3F825A"/>
<path d="M39.0592 96.3211L41.799 97.6189C46.8459 100.359 51.1718 104.252 54.4883 108.866L54.7767 109.299C55.2093 109.876 55.6419 110.452 56.2187 110.885C55.6419 111.894 55.4977 113.192 55.7861 114.346L56.0745 115.932C56.6513 119.104 59.5352 121.123 62.7076 120.546L77.5599 117.951L92.4122 120.546C92.7006 120.546 93.1332 120.69 93.4216 120.69C96.1613 120.69 98.6127 118.672 99.0453 115.932L99.3337 114.346C99.4779 113.192 99.3337 112.039 98.9011 110.885C99.4779 110.452 100.055 109.876 100.343 109.299L100.487 109.011C103.804 104.396 108.13 100.503 113.177 97.7631L115.916 96.4653C117.214 95.8885 118.223 94.735 118.8 93.4372C119.954 90.5533 118.512 87.3809 115.628 86.2273C115.051 85.9389 114.474 85.9389 113.898 85.7947H113.753C110.581 85.6505 107.409 86.2273 104.525 87.5251L103.515 87.9577C103.227 88.1019 102.939 87.9577 102.794 87.6693C102.794 87.5251 102.794 87.5251 102.794 87.3809L106.544 65.8955C107.12 62.4348 104.813 59.2625 101.497 58.6857C100.776 58.5415 100.199 58.5415 99.4779 58.6857C99.3337 58.2531 99.0453 57.8205 98.7569 57.3879C96.7381 54.504 92.8448 53.9272 90.105 55.8017C89.6724 56.0901 89.3841 56.3785 89.0957 56.6669C86.0675 55.0807 82.3184 56.0901 80.588 59.1183C80.2996 59.6951 80.0112 60.416 79.8671 60.9928L79.2902 63.8768C78.2809 63.5884 77.2715 63.4442 76.4063 63.5884C76.1179 63.5884 75.8295 63.7326 75.6853 63.7326L75.1085 60.8486C74.5318 57.3879 71.2152 55.2249 67.8987 55.8017C67.1777 55.9459 66.6009 56.0901 66.0241 56.5227C65.7357 56.2343 65.3031 55.8017 65.0147 55.6575C62.1308 53.6388 58.2375 54.3597 56.3629 57.2437C56.0745 57.6763 55.9303 58.1089 55.6419 58.5415C54.9209 58.3973 54.3442 58.3973 53.6232 58.5415C50.1624 59.1183 47.9995 62.4348 48.5763 65.7513L52.3254 87.2367C52.3254 87.5251 52.1812 87.8135 51.8928 87.8135C51.7486 87.8135 51.7486 87.8135 51.6044 87.8135L50.595 87.3809C47.7111 86.0831 44.5387 85.5063 41.3664 85.6505H41.2222C38.1941 85.7947 35.7427 88.3903 35.8869 91.4184C35.8869 91.9952 36.0311 92.572 36.3195 93.1488C36.7521 94.5908 37.7615 95.7444 39.0592 96.3211ZM86.3559 111.029L61.6982 115.355C61.4098 115.355 61.1214 115.211 61.1214 114.923L60.833 113.336C60.833 113.048 60.9772 112.76 61.2656 112.76L85.9233 108.434C85.9233 108.434 85.9233 108.434 86.0675 108.434C86.3559 108.434 86.5001 108.578 86.6443 108.866L86.9327 110.452C86.7885 110.741 86.6443 111.029 86.3559 111.029ZM93.9984 114.923C93.9984 115.211 93.71 115.355 93.4216 115.355L90.105 114.778C90.826 114.202 91.4028 113.336 91.6912 112.471L93.8542 112.904C94.1426 112.904 94.2868 113.192 94.2868 113.481L93.9984 114.923ZM85.0581 62.0022C85.2023 61.4254 85.6349 60.9928 86.2117 61.137C86.7885 61.2812 87.0769 61.7138 87.0769 62.2906L86.9327 62.8674L85.3465 71.9518C85.0582 73.3938 86.0675 74.6916 87.5095 74.98C87.6537 74.98 87.7979 74.98 87.9421 74.98C89.2399 74.98 90.2492 74.1148 90.5376 72.817L92.7006 60.7044C92.7006 60.416 92.8448 60.1276 93.1332 59.9834C93.5658 59.695 94.2868 59.8393 94.5752 60.2718C94.7194 60.5602 94.8636 60.8486 94.7194 60.9928L91.6912 78.0081C91.4028 79.4501 92.4122 80.7478 93.8542 81.0362C93.9984 81.0362 94.1426 81.0362 94.2868 81.0362C95.5845 81.0362 96.5939 80.171 96.8823 78.8733L99.4779 64.4536C99.6221 63.8768 100.055 63.4442 100.631 63.5884C101.208 63.7326 101.641 64.1652 101.497 64.742L97.7475 86.2273C97.6033 86.9483 97.6033 87.6693 97.7475 88.3903C97.3149 88.2461 96.8823 88.2461 96.5939 88.1019C95.2961 87.6693 93.71 88.2461 93.2774 89.6881C92.8448 90.9858 93.4216 92.572 94.8635 93.0046C96.3055 93.5814 97.8917 93.7256 99.4779 93.7256C101.641 93.7256 103.804 93.293 105.823 92.4278L106.832 91.9952C108.995 90.9858 111.302 90.5532 113.609 90.6974H113.753C113.898 90.6974 114.042 90.6974 114.042 90.8416C114.042 90.9858 114.042 90.9858 114.042 91.13C114.042 91.2742 113.898 91.4184 113.753 91.4184L111.014 92.7162C105.102 95.8885 100.055 100.359 96.1613 105.838L96.0171 106.127C95.4403 106.992 94.431 107.424 93.4216 107.28L91.8354 106.992L91.4028 106.848C90.9702 105.694 90.2492 104.685 89.2399 104.108C88.9515 103.964 88.8073 103.819 88.5189 103.675C88.9515 102.377 89.0957 101.08 88.8073 99.7819L83.472 69.7889L85.0581 62.0022ZM41.078 91.13C41.078 90.9858 41.2222 90.9858 41.3664 90.9858H41.5106C43.8177 90.8416 46.1249 91.2742 48.2879 92.2836L49.2973 92.7162C52.1812 94.014 55.6419 92.7162 56.7955 89.8323C57.2281 88.8229 57.3723 87.6693 57.2281 86.5157L53.479 65.0303C53.3348 64.4536 53.7674 63.8768 54.3442 63.8768C54.9209 63.7326 55.4977 64.1652 55.4977 64.742L58.0933 79.1617C58.3817 80.4594 59.391 81.3246 60.6888 81.3246C60.833 81.3246 60.9772 81.3246 61.1214 81.3246C62.5634 81.0362 63.4286 79.7385 63.2844 78.2965L60.2562 61.2812C60.112 60.7044 60.5446 60.1276 61.1214 60.1276C61.6982 59.9834 62.275 60.416 62.275 60.9928L65.3031 78.0081C65.5915 79.3059 66.6009 80.171 67.8987 80.171C68.0429 80.171 68.1871 80.171 68.3313 80.171C69.7733 79.8827 70.6384 78.5849 70.4942 77.1429L67.8987 62.7232C67.7545 62.1464 68.1871 61.5696 68.7639 61.5696C69.3407 61.4254 69.7732 61.858 69.9174 62.4348L72.513 77.2871C72.8014 78.7291 74.0992 79.5943 75.5411 79.4501C76.9831 79.1617 77.8483 77.8639 77.7041 76.4219L76.5505 70.2214C76.4063 69.7888 76.6947 69.3563 77.1273 69.3563C77.5599 69.2121 77.9925 69.5005 77.9925 69.9331L83.472 101.224C83.7604 102.666 82.751 103.964 81.309 104.252L61.2656 107.857C60.2562 108.001 59.2469 107.569 58.6701 106.848L58.5259 106.559C54.6325 101.08 49.5856 96.6095 43.6736 93.4372L40.9338 92.1394C40.7896 92.1394 40.6454 91.9952 40.6454 91.851C41.078 91.2742 41.078 91.13 41.078 91.13Z" fill="#3F825A"/>
<path d="M74.9629 33.5956V42.68C74.9629 44.1219 76.1165 45.2755 77.5584 45.2755C79.0004 45.2755 80.154 44.1219 80.154 42.68V33.5956C80.154 32.1536 79.0004 31 77.5584 31C76.1165 31 74.9629 32.1536 74.9629 33.5956Z" fill="#3F825A"/>
<path d="M88.3747 33.5957L84.4814 40.0845C83.7604 41.3823 84.193 42.9685 85.3466 43.6895C86.5002 44.4105 88.2305 43.9779 88.9515 42.8243L92.8448 36.3354C93.5658 35.0376 93.1332 33.4515 91.9796 32.7305C90.8261 32.0095 89.0957 32.2979 88.3747 33.5957Z" fill="#3F825A"/>
<path d="M63.1401 32.5864C61.8423 33.3074 61.5539 34.8935 62.2749 36.1913L66.1682 42.6802C66.8892 43.9779 68.4754 44.2663 69.7732 43.5454C71.0709 42.8244 71.3593 41.2382 70.6383 39.9404L66.745 33.4516C66.024 32.298 64.4379 31.8654 63.1401 32.5864Z" fill="#3F825A"/>
</svg>
