<svg width="154" height="154" viewBox="0 0 154 154" fill="none" xmlns="http://www.w3.org/2000/svg">
<path d="M77.0005 151.42C118.102 151.42 151.421 118.101 151.421 77C151.421 35.8988 118.102 2.57959 77.0005 2.57959C35.8992 2.57959 2.58008 35.8988 2.58008 77C2.58008 118.101 35.8992 151.42 77.0005 151.42Z" fill="#FF897D"/>
<path d="M77 5.15913C116.596 5.15913 148.841 37.4037 148.841 77C148.841 116.596 116.596 148.841 77 148.841C37.4037 148.841 5.15913 116.596 5.15913 77C5.15913 37.4037 37.4037 5.15913 77 5.15913ZM77 0C34.5662 0 0 34.4372 0 77C0 119.434 34.4372 154 77 154C119.434 154 154 119.563 154 77C153.871 34.4372 119.434 0 77 0Z" fill="#BC3333"/>
<path d="M38.3014 96.3211L41.0412 97.6189C46.0881 100.359 50.414 104.252 53.7305 108.866L54.0189 109.299C54.4515 109.876 54.8841 110.452 55.4609 110.885C54.8841 111.894 54.7399 113.192 55.0283 114.346L55.3167 115.932C55.8935 119.104 58.7774 121.123 61.9498 120.546L76.8021 117.951L91.6544 120.546C91.9428 120.546 92.3754 120.69 92.6638 120.69C95.4035 120.69 97.8549 118.672 98.2875 115.932L98.5759 114.346C98.7201 113.192 98.5759 112.039 98.1433 110.885C98.72 110.452 99.2968 109.876 99.5852 109.299L99.7294 109.011C103.046 104.396 107.372 100.503 112.419 97.7631L115.159 96.4653C116.456 95.8885 117.466 94.735 118.042 93.4372C119.196 90.5533 117.754 87.3809 114.87 86.2273C114.293 85.9389 113.717 85.9389 113.14 85.7947H112.996C109.823 85.6505 106.651 86.2273 103.767 87.5251L102.758 87.9577C102.469 88.1019 102.181 87.9577 102.037 87.6693C102.037 87.5251 102.037 87.5251 102.037 87.3809L105.786 65.8955C106.363 62.4348 104.055 59.2625 100.739 58.6857C100.018 58.5415 99.441 58.5415 98.72 58.6857C98.5758 58.2531 98.2874 57.8205 97.9991 57.3879C95.9803 54.504 92.087 53.9272 89.3472 55.8017C88.9146 56.0901 88.6262 56.3785 88.3378 56.6669C85.3097 55.0807 81.5606 56.0901 79.8302 59.1183C79.5418 59.6951 79.2534 60.416 79.1092 60.9928L78.5324 63.8768C77.5231 63.5884 76.5137 63.4442 75.6485 63.5884C75.3601 63.5884 75.0717 63.7326 74.9275 63.7326L74.3507 60.8486C73.7739 57.3879 70.4574 55.2249 67.1409 55.8017C66.4199 55.9459 65.8431 56.0901 65.2663 56.5227C64.9779 56.2343 64.5453 55.8017 64.2569 55.6575C61.373 53.6388 57.4797 54.3597 55.6051 57.2437C55.3167 57.6763 55.1725 58.1089 54.8841 58.5415C54.1631 58.3973 53.5863 58.3973 52.8654 58.5415C49.4046 59.1183 47.2417 62.4348 47.8185 65.7513L51.5676 87.2367C51.5676 87.5251 51.4234 87.8135 51.135 87.8135C50.9908 87.8135 50.9908 87.8135 50.8466 87.8135L49.8372 87.3809C46.9533 86.0831 43.7809 85.5063 40.6086 85.6505H40.4644C37.4362 85.7947 34.9849 88.3903 35.1291 91.4184C35.1291 91.9952 35.2733 92.572 35.5617 93.1488C35.9943 94.5908 37.0037 95.7444 38.3014 96.3211ZM85.5981 111.029L60.9404 115.355C60.652 115.355 60.3636 115.211 60.3636 114.923L60.0752 113.336C60.0752 113.048 60.2194 112.76 60.5078 112.76L85.1655 108.434C85.1655 108.434 85.1655 108.434 85.3097 108.434C85.5981 108.434 85.7423 108.578 85.8865 108.866L86.1749 110.452C86.0307 110.741 85.8865 111.029 85.5981 111.029ZM93.2406 114.923C93.2406 115.211 92.9522 115.355 92.6638 115.355L89.3472 114.778C90.0682 114.202 90.645 113.336 90.9334 112.471L93.0964 112.904C93.3848 112.904 93.529 113.192 93.529 113.481L93.2406 114.923ZM84.3003 62.0022C84.4445 61.4254 84.8771 60.9928 85.4539 61.137C86.0307 61.2812 86.3191 61.7138 86.3191 62.2906L86.1749 62.8674L84.5887 71.9518C84.3003 73.3938 85.3097 74.6916 86.7517 74.98C86.8959 74.98 87.0401 74.98 87.1843 74.98C88.482 74.98 89.4914 74.1148 89.7798 72.817L91.9428 60.7044C91.9428 60.416 92.087 60.1276 92.3754 59.9834C92.808 59.695 93.5289 59.8393 93.8173 60.2718C93.9615 60.5602 94.1057 60.8486 93.9616 60.9928L90.9334 78.0081C90.645 79.4501 91.6544 80.7478 93.0964 81.0362C93.2406 81.0362 93.3848 81.0362 93.529 81.0362C94.8267 81.0362 95.8361 80.171 96.1245 78.8733L98.72 64.4536C98.8642 63.8768 99.2968 63.4442 99.8736 63.5884C100.45 63.7326 100.883 64.1652 100.739 64.742L96.9897 86.2273C96.8455 86.9483 96.8455 87.6693 96.9897 88.3903C96.5571 88.2461 96.1245 88.2461 95.8361 88.1019C94.5383 87.6693 92.9522 88.2461 92.5196 89.6881C92.087 90.9858 92.6638 92.572 94.1057 93.0046C95.5477 93.5814 97.1339 93.7256 98.72 93.7256C100.883 93.7256 103.046 93.293 105.065 92.4278L106.074 91.9952C108.237 90.9858 110.544 90.5532 112.851 90.6974H112.996C113.14 90.6974 113.284 90.6974 113.284 90.8416C113.284 90.9858 113.284 90.9858 113.284 91.13C113.284 91.2742 113.14 91.4184 112.996 91.4184L110.256 92.7162C104.344 95.8885 99.2968 100.359 95.4035 105.838L95.2593 106.127C94.6825 106.992 93.6731 107.424 92.6638 107.28L91.0776 106.992L90.645 106.848C90.2124 105.694 89.4914 104.685 88.4821 104.108C88.1937 103.964 88.0495 103.819 87.7611 103.675C88.1937 102.377 88.3379 101.08 88.0495 99.7819L82.7142 69.7889L84.3003 62.0022ZM40.3202 91.13C40.3202 90.9858 40.4644 90.9858 40.6086 90.9858H40.7528C43.0599 90.8416 45.3671 91.2742 47.53 92.2836L48.5394 92.7162C51.4234 94.014 54.8841 92.7162 56.0377 89.8323C56.4703 88.8229 56.6145 87.6693 56.4703 86.5157L52.7211 65.0303C52.577 64.4536 53.0096 63.8768 53.5863 63.8768C54.1631 63.7326 54.7399 64.1652 54.7399 64.742L57.3355 79.1617C57.6238 80.4594 58.6332 81.3246 59.931 81.3246C60.0752 81.3246 60.2194 81.3246 60.3636 81.3246C61.8056 81.0362 62.6708 79.7385 62.5266 78.2965L59.4984 61.2812C59.3542 60.7044 59.7868 60.1276 60.3636 60.1276C60.9404 59.9834 61.5172 60.416 61.5172 60.9928L64.5453 78.0081C64.8337 79.3059 65.8431 80.171 67.1409 80.171C67.2851 80.171 67.4293 80.171 67.5735 80.171C69.0154 79.8827 69.8806 78.5849 69.7364 77.1429L67.1409 62.7232C66.9967 62.1464 67.4293 61.5696 68.0061 61.5696C68.5829 61.4254 69.0154 61.858 69.1596 62.4348L71.7552 77.2871C72.0436 78.7291 73.3414 79.5943 74.7833 79.4501C76.2253 79.1617 77.0905 77.8639 76.9463 76.4219L75.7927 70.2214C75.6485 69.7888 75.9369 69.3563 76.3695 69.3563C76.8021 69.2121 77.2347 69.5005 77.2347 69.9331L82.7142 101.224C83.0026 102.666 81.9932 103.964 80.5512 104.252L60.5078 107.857C59.4984 108.001 58.489 107.569 57.9123 106.848L57.7681 106.559C53.8747 101.08 48.8278 96.6095 42.9157 93.4372L40.176 92.1394C40.0318 92.1394 39.8876 91.9952 39.8876 91.851C40.3202 91.2742 40.3202 91.13 40.3202 91.13Z" fill="#BC3333"/>
<path d="M74.2051 33.5956V42.68C74.2051 44.1219 75.3587 45.2755 76.8006 45.2755C78.2426 45.2755 79.3962 44.1219 79.3962 42.68V33.5956C79.3962 32.1536 78.2426 31 76.8006 31C75.3587 31 74.2051 32.1536 74.2051 33.5956Z" fill="#BC3333"/>
<path d="M87.6169 33.5957L83.7236 40.0845C83.0026 41.3823 83.4352 42.9685 84.5888 43.6895C85.7423 44.4105 87.4727 43.9779 88.1937 42.8243L92.087 36.3354C92.808 35.0376 92.3754 33.4515 91.2218 32.7305C90.0682 32.0095 88.3379 32.2979 87.6169 33.5957Z" fill="#BC3333"/>
<path d="M62.3823 32.5864C61.0845 33.3074 60.7961 34.8935 61.5171 36.1913L65.4104 42.6802C66.1314 43.9779 67.7176 44.2663 69.0154 43.5454C70.3131 42.8244 70.6015 41.2382 69.8805 39.9404L65.9872 33.4516C65.2662 32.298 63.6801 31.8654 62.3823 32.5864Z" fill="#BC3333"/>
</svg>
