<svg width="155" height="154" viewBox="0 0 155 154" fill="none" xmlns="http://www.w3.org/2000/svg">
<path d="M77.4419 151.42C118.543 151.42 151.862 118.101 151.862 77C151.862 35.8988 118.543 2.57959 77.4419 2.57959C36.3406 2.57959 3.02148 35.8988 3.02148 77C3.02148 118.101 36.3406 151.42 77.4419 151.42Z" fill="#FF6CA8"/>
<path d="M77.4414 5.15913C117.038 5.15913 149.282 37.4037 149.282 77C149.282 116.596 117.038 148.841 77.4414 148.841C37.8451 148.841 5.60054 116.596 5.60054 77C5.60054 37.4037 37.8451 5.15913 77.4414 5.15913ZM77.4414 0C35.0076 0 0.441406 34.4372 0.441406 77C0.441406 119.434 34.8786 154 77.4414 154C119.875 154 154.441 119.563 154.441 77C154.312 34.4372 119.875 0 77.4414 0Z" fill="#9B0E54"/>
<path d="M75.9082 46.1066C76.4713 46.9513 77.4567 47.2328 78.4421 46.8105C78.7237 46.6697 79.0052 46.3882 79.146 46.1066L84.4954 36.8155C85.0585 35.9708 84.6362 34.8446 83.7916 34.2815C83.51 34.1408 83.2285 34 82.9469 34H72.248C71.2626 34 70.418 34.8446 70.418 35.8301C70.418 36.1116 70.5587 36.3932 70.6995 36.6747L75.9082 46.1066ZM79.7091 37.8009L77.4567 41.6018L75.2043 37.8009H79.7091Z" fill="#9B0E54"/>
<path d="M55.6352 53.7081L66.3341 53.5674C67.3195 53.5674 68.1642 52.7227 68.1642 51.7373C68.1642 51.4557 68.0234 51.1742 67.8826 50.8926L62.3924 41.7423C61.8293 40.8976 60.7031 40.6161 59.8584 41.1792C59.5769 41.32 59.4361 41.6015 59.1546 41.8831L53.9459 51.315C53.5236 52.1596 53.8051 53.2858 54.7906 53.7081C55.0721 53.5674 55.3536 53.7081 55.6352 53.7081ZM60.8439 46.1063L63.0963 49.9072L58.5915 50.048L60.8439 46.1063Z" fill="#9B0E54"/>
<path d="M88.5759 53.5679L99.2747 53.7086C100.26 53.7086 101.105 52.864 101.105 51.8786C101.105 51.597 100.964 51.3155 100.823 51.0339L95.6146 41.602C95.1923 40.7574 94.0661 40.4758 93.2214 40.8981C92.9399 41.0389 92.6583 41.3205 92.5175 41.602L87.0273 50.7524C86.4642 51.597 86.7458 52.7232 87.5904 53.2863C87.872 53.4271 88.1535 53.5679 88.5759 53.5679ZM94.0661 46.2476L96.1777 50.1893L91.6729 50.0485L94.0661 46.2476Z" fill="#9B0E54"/>
<path d="M70.4156 92.9843L72.5272 91.4358C73.5126 90.7319 74.2165 89.6057 74.498 88.3388C74.7796 86.7902 74.3573 85.2417 73.2311 84.1155C72.1049 82.9893 70.5563 82.4262 69.0078 82.567H68.8671C66.0516 82.8486 63.5176 83.834 61.1244 85.3825L60.2798 85.9456C60.139 86.0864 59.7167 86.0864 59.5759 85.8048C59.5759 85.664 59.4351 85.664 59.4351 85.5233V66.3779C59.4351 63.2809 56.9012 60.8877 53.9449 60.8877C53.3818 60.8877 52.8187 61.0285 52.2556 61.1692C50.7071 58.6353 47.1877 57.7907 44.6538 59.4799C43.9499 59.9023 43.3868 60.4654 42.9645 61.1692C40.149 60.1838 36.9112 61.7323 35.9258 64.6886C35.785 65.2517 35.6442 65.8148 35.6442 66.3779V68.9119C32.6879 68.4895 30.154 70.6012 29.7317 73.4166C29.7317 73.6982 29.7317 73.839 29.7317 74.1205V102.135C29.7317 103.261 30.0132 104.387 30.5763 105.513C29.3093 106.499 28.6055 107.906 28.6055 109.455V110.863C28.6055 113.678 30.8579 115.931 33.6734 115.931H55.6342C58.4497 115.931 60.7021 113.678 60.7021 110.863V109.455C60.7021 108.47 60.4206 107.343 59.7167 106.499C60.139 105.936 60.5613 105.373 60.7021 104.809L60.8429 104.528C63.3768 100.164 66.4739 96.2222 70.4156 92.9843ZM56.3381 111.004C56.3381 111.285 56.1973 111.426 55.9158 111.426H33.9549C33.6734 111.426 33.5326 111.285 33.5326 111.004V109.596C33.5326 109.314 33.6734 109.173 33.9549 109.173H55.9158C56.1973 109.173 56.3381 109.314 56.3381 109.596V111.004ZM56.9012 102.979L56.7604 103.261C56.3381 104.106 55.6342 104.669 54.6488 104.669H36.7704C35.5034 104.669 34.518 103.683 34.518 102.416V74.2613C34.518 73.839 34.7996 73.5574 35.2219 73.5574C35.6442 73.5574 35.9258 73.839 35.9258 74.2613V79.7515C35.9258 81.0185 36.9112 82.0039 38.1782 82.0039C39.4451 82.0039 40.4305 81.0185 40.4305 79.7515V66.5187C40.4305 65.9556 40.8529 65.5333 41.416 65.5333C41.9791 65.5333 42.4014 65.9556 42.4014 66.5187V79.3292C42.4014 80.5962 43.3868 81.5816 44.6538 81.5816C45.9208 81.5816 46.9062 80.5962 46.9062 79.3292V64.2663C46.9062 63.7032 47.3285 63.2809 47.8916 63.2809C48.4547 63.2809 48.877 63.7032 48.877 64.2663V79.47C48.877 80.7369 49.8625 81.7224 51.1294 81.7224C52.3964 81.7224 53.3818 80.7369 53.3818 79.47V66.6595C53.3818 66.0964 53.8041 65.674 54.3672 65.674C54.9303 65.674 55.3527 66.0964 55.3527 66.6595V85.8048C55.3527 86.5087 55.4934 87.0718 55.775 87.6349C55.3527 87.6349 55.0711 87.6349 54.6488 87.4941C53.3818 87.2126 52.2556 88.0572 51.9741 89.3242C51.6925 90.5912 52.5372 91.7174 53.8041 91.9989C54.508 92.1397 55.0711 92.1397 55.775 92.1397C58.4497 92.1397 60.9837 91.295 63.2361 89.8873L64.0807 89.3242C65.77 88.198 67.7408 87.4941 69.8525 87.2126H69.9932C70.134 87.2126 70.134 87.2126 70.2748 87.3533C70.2748 87.3533 70.4156 87.4941 70.2748 87.6349C70.2748 87.7757 70.134 87.9164 70.134 87.9164L68.0224 89.465C63.0953 92.9843 59.4351 97.6299 56.9012 102.979Z" fill="#9B0E54"/>
<path d="M93.642 104.809L93.7827 105.091C94.0643 105.654 94.3458 106.217 94.7682 106.78C94.2051 107.625 93.7827 108.61 93.7827 109.736V111.144C93.7827 113.96 96.0351 116.212 98.8506 116.212H120.811C123.627 116.212 125.879 113.96 125.879 111.144V109.736C125.879 108.188 125.175 106.639 123.909 105.795C124.472 104.809 124.753 103.683 124.753 102.416V74.2613C124.753 73.9797 124.753 73.8389 124.753 73.5574C124.331 70.6011 121.656 68.6303 118.841 69.0526V66.5187C118.841 65.9556 118.7 65.3925 118.559 64.8294C117.574 62.0139 114.477 60.4654 111.52 61.31C111.098 60.6061 110.535 60.043 109.831 59.6207C107.297 58.0722 103.919 58.7761 102.229 61.31C101.666 61.1692 101.103 61.0284 100.54 61.0284C97.4429 61.0284 95.0497 63.5624 95.0497 66.5187V85.664C95.0497 85.8048 95.0497 85.8048 94.9089 85.9456C94.7682 86.0864 94.4866 86.2271 94.2051 86.0863L93.3604 85.5232C91.108 83.9747 88.4333 82.9893 85.6178 82.7078H85.477C83.9285 82.567 82.38 83.1301 81.2538 84.2563C80.1276 85.3825 79.7053 86.931 79.9868 88.4795C80.2684 89.7465 80.9722 90.8727 81.9576 91.5766L84.0693 93.1251C88.4333 96.2221 91.5303 100.164 93.642 104.809ZM98.5691 109.596C98.5691 109.314 98.7098 109.173 98.9914 109.173H120.952C121.234 109.173 121.375 109.314 121.375 109.596V111.003C121.375 111.285 121.234 111.426 120.952 111.426H98.9914C98.7098 111.426 98.5691 111.285 98.5691 111.003V109.596ZM98.006 102.979C95.472 97.6299 91.8119 92.9843 87.1663 89.3242L85.0547 87.7757C84.9139 87.6349 84.9139 87.6349 84.9139 87.4941C84.9139 87.3533 84.9139 87.3533 84.9139 87.2125C85.0547 87.0718 85.0547 87.0718 85.1955 87.0718H85.3363C87.4479 87.3533 89.2779 88.0572 91.108 89.1834L91.9527 89.7465C94.2051 91.1542 96.739 91.9989 99.4137 91.9989C100.118 91.9989 100.681 91.9989 101.385 91.8581C102.652 91.5766 103.496 90.4504 103.215 89.1834C102.933 87.9164 101.807 87.0718 100.54 87.3533C100.118 87.3533 99.8361 87.4941 99.4137 87.4941C99.6953 86.931 99.8361 86.2271 99.8361 85.664V66.5187C99.8361 65.9556 100.258 65.5332 100.821 65.5332C101.385 65.5332 101.807 65.9556 101.807 66.5187V79.3292C101.807 80.5961 102.792 81.5816 104.059 81.5816C105.326 81.5816 106.312 80.5961 106.312 79.3292V64.1255C106.312 63.5624 106.734 63.1401 107.297 63.1401C107.86 63.1401 108.283 63.5624 108.283 64.1255V79.1884C108.283 80.4554 109.268 81.4408 110.535 81.4408C111.802 81.4408 112.787 80.4554 112.787 79.1884V66.3779C112.787 65.8148 113.21 65.3925 113.773 65.3925C114.336 65.3925 114.758 65.8148 114.758 66.3779V79.6107C114.758 80.8777 115.744 81.8631 117.011 81.8631C118.278 81.8631 119.263 80.8777 119.263 79.6107V74.2613C119.263 73.8389 119.544 73.5574 119.967 73.5574C120.389 73.5574 120.671 73.8389 120.671 74.2613V102.275C120.671 103.542 119.685 104.528 118.418 104.528H100.54C99.6953 104.528 98.8506 103.965 98.4283 103.12L98.006 102.979Z" fill="#9B0E54"/>
</svg>
