<svg width="470" height="440" viewBox="0 0 470 440" fill="none" xmlns="http://www.w3.org/2000/svg">
<path d="M80 10C41.3401 10 10 41.34 10 80V360C10 398.66 41.3401 430 80 430H390C428.66 430 460 398.66 460 360V80C460 41.3401 428.66 10 390 10H80Z" fill="#FF6CA8" stroke="#F4F5F9" stroke-width="20"/>
<path d="M20 276.141H450V360C450 393.137 423.137 420 390 420H80C46.8629 420 20 393.137 20 360V276.141Z" fill="url(#paint0_linear)"/>
<g opacity="0.6">
<path opacity="0.2" d="M134.753 196.273H335.131C336.082 194.132 337.034 191.99 337.866 189.848H132.018C132.85 191.99 133.801 194.132 134.753 196.273Z" stroke="#9B0E54" stroke-width="3" stroke-miterlimit="10"/>
<path opacity="0.2" d="M137.963 202.698H332.038C333.109 200.556 334.179 198.415 335.249 196.273H134.752C135.703 198.415 136.774 200.675 137.963 202.698Z" stroke="#9B0E54" stroke-width="3" stroke-miterlimit="10"/>
<path opacity="0.2" d="M132.016 189.848H337.864C338.697 187.706 339.41 185.565 340.124 183.423H129.875C130.47 185.565 131.302 187.706 132.016 189.848Z" stroke="#9B0E54" stroke-width="3" stroke-miterlimit="10"/>
<path opacity="0.2" d="M125.238 157.485H344.762C344.881 155.343 345 153.201 345 151.06H125C125 153.201 125.119 155.343 125.238 157.485Z" stroke="#9B0E54" stroke-width="3" stroke-miterlimit="10"/>
<path opacity="0.2" d="M126.783 170.454H343.216C343.573 168.312 343.929 166.171 344.167 164.029H125.832C126.07 166.171 126.427 168.312 126.783 170.454Z" stroke="#9B0E54" stroke-width="3" stroke-miterlimit="10"/>
<path opacity="0.2" d="M125.833 163.91H344.168C344.406 161.768 344.644 159.626 344.763 157.485H125.238C125.357 159.626 125.595 161.768 125.833 163.91Z" stroke="#9B0E54" stroke-width="3" stroke-miterlimit="10"/>
<path opacity="0.2" d="M128.093 176.879H341.79C342.266 174.738 342.742 172.596 343.098 170.454H126.666C127.142 172.596 127.617 174.738 128.093 176.879Z" stroke="#9B0E54" stroke-width="3" stroke-miterlimit="10"/>
<path opacity="0.2" d="M146.048 215.667H323.951C325.497 213.526 326.924 211.384 328.351 209.242H141.648C143.075 211.384 144.502 213.526 146.048 215.667Z" stroke="#9B0E54" stroke-width="3" stroke-miterlimit="10"/>
<path opacity="0.2" d="M141.649 209.242H328.233C329.541 207.101 330.849 204.959 331.92 202.817H137.963C139.152 204.959 140.341 207.101 141.649 209.242Z" stroke="#9B0E54" stroke-width="3" stroke-miterlimit="10"/>
<path opacity="0.2" d="M183.033 247.912H287.087C290.774 246.008 294.222 243.747 297.552 241.487H172.449C175.898 243.866 179.347 246.008 183.033 247.912Z" stroke="#9B0E54" stroke-width="3" stroke-miterlimit="10"/>
<path opacity="0.2" d="M229.411 260.881H240.589C251.768 260.286 262.589 258.026 272.579 254.456H197.422C207.411 258.145 218.233 260.286 229.411 260.881Z" stroke="#9B0E54" stroke-width="3" stroke-miterlimit="10"/>
<path opacity="0.2" d="M197.422 254.456H272.579C277.574 252.671 282.33 250.529 286.968 248.031H182.914C187.552 250.41 192.428 252.671 197.422 254.456Z" stroke="#9B0E54" stroke-width="3" stroke-miterlimit="10"/>
<path opacity="0.2" d="M234.999 261C236.902 261 238.686 261 240.589 260.881H229.41C231.313 261 233.097 261 234.999 261Z" stroke="#9B0E54" stroke-width="3" stroke-miterlimit="10"/>
<path opacity="0.2" d="M151.043 222.093H318.838C320.622 219.951 322.287 217.809 323.952 215.667H146.049C147.595 217.928 149.379 220.07 151.043 222.093Z" stroke="#9B0E54" stroke-width="3" stroke-miterlimit="10"/>
<path opacity="0.2" d="M172.449 241.487H297.433C300.406 239.464 303.141 237.322 305.876 235.062H164.006C166.741 237.322 169.595 239.464 172.449 241.487Z" stroke="#9B0E54" stroke-width="3" stroke-miterlimit="10"/>
<path opacity="0.2" d="M156.991 228.637H312.894C314.915 226.614 316.937 224.353 318.84 222.211H151.045C152.948 224.353 154.969 226.495 156.991 228.637Z" stroke="#9B0E54" stroke-width="3" stroke-miterlimit="10"/>
<path opacity="0.2" d="M164.006 235.062H305.877C308.255 233.039 310.633 230.897 312.893 228.637H156.99C159.25 230.897 161.628 233.039 164.006 235.062Z" stroke="#9B0E54" stroke-width="3" stroke-miterlimit="10"/>
<path opacity="0.2" d="M129.876 183.304H340.124C340.719 181.162 341.313 179.021 341.908 176.879H128.092C128.686 179.021 129.162 181.162 129.876 183.304Z" stroke="#9B0E54" stroke-width="3" stroke-miterlimit="10"/>
<path opacity="0.2" d="M151.045 79.9075H318.84C316.937 77.6468 315.034 75.5051 312.894 73.4824H156.991C154.969 75.5051 152.948 77.6468 151.045 79.9075Z" stroke="#9B0E54" stroke-width="3" stroke-miterlimit="10"/>
<path opacity="0.2" d="M125 151.059H344.881C344.881 148.918 344.762 146.776 344.643 144.634H125.238C125.119 146.657 125 148.799 125 151.059Z" stroke="#9B0E54" stroke-width="3" stroke-miterlimit="10"/>
<path opacity="0.2" d="M164.006 67.0574H305.876C303.141 64.7967 300.406 62.655 297.433 60.6323H172.449C169.595 62.5361 166.741 64.6778 164.006 67.0574Z" stroke="#9B0E54" stroke-width="3" stroke-miterlimit="10"/>
<path opacity="0.2" d="M146.049 86.4515H323.952C322.287 84.1908 320.622 82.0491 318.838 80.0264H151.043C149.379 82.0491 147.595 84.1908 146.049 86.4515Z" stroke="#9B0E54" stroke-width="3" stroke-miterlimit="10"/>
<path opacity="0.2" d="M141.648 92.8765H328.232C326.805 90.6158 325.378 88.4741 323.832 86.4514H146.048C144.502 88.4741 143.075 90.6158 141.648 92.8765Z" stroke="#9B0E54" stroke-width="3" stroke-miterlimit="10"/>
<path opacity="0.2" d="M197.422 47.6628C192.428 49.4476 187.671 51.5893 183.033 54.0879H287.087C282.449 51.5893 277.693 49.4476 272.698 47.6628H197.422V47.6628Z" stroke="#9B0E54" stroke-width="3" stroke-miterlimit="10"/>
<path opacity="0.2" d="M240.589 41.1194H229.411C218.233 41.7143 207.411 43.975 197.422 47.5445H272.579C262.471 43.975 251.768 41.7143 240.589 41.1194Z" stroke="#9B0E54" stroke-width="3" stroke-miterlimit="10"/>
<path opacity="0.2" d="M172.449 60.5132H297.433C294.103 58.1336 290.536 55.9919 286.968 54.0881H182.914C179.347 55.9919 175.898 58.2526 172.449 60.5132Z" stroke="#9B0E54" stroke-width="3" stroke-miterlimit="10"/>
<path opacity="0.2" d="M234.999 41C233.097 41 231.313 41 229.41 41.1194H240.589C238.686 41.1194 236.902 41 234.999 41Z" stroke="#9B0E54" stroke-width="3" stroke-miterlimit="10"/>
<path opacity="0.2" d="M156.99 73.4825H312.893C310.633 71.2218 308.255 69.0801 305.877 67.0574H164.006C161.628 69.0801 159.25 71.2218 156.99 73.4825Z" stroke="#9B0E54" stroke-width="3" stroke-miterlimit="10"/>
<path opacity="0.2" d="M126.783 131.665H343.216C342.859 129.524 342.383 127.382 341.908 125.24H128.091C127.616 127.263 127.14 129.405 126.783 131.665Z" stroke="#9B0E54" stroke-width="3" stroke-miterlimit="10"/>
<path opacity="0.2" d="M125.832 138.09H344.167C343.929 135.949 343.573 133.807 343.216 131.665H126.783C126.427 133.807 126.07 135.949 125.832 138.09Z" stroke="#9B0E54" stroke-width="3" stroke-miterlimit="10"/>
<path opacity="0.2" d="M125.238 144.515H344.763C344.644 142.374 344.406 140.232 344.168 138.09H125.833C125.595 140.232 125.357 142.374 125.238 144.515Z" stroke="#9B0E54" stroke-width="3" stroke-miterlimit="10"/>
<path opacity="0.2" d="M128.092 125.121H341.789C341.313 122.979 340.719 120.838 340.005 118.696H129.876C129.162 120.838 128.686 122.979 128.092 125.121Z" stroke="#9B0E54" stroke-width="3" stroke-miterlimit="10"/>
<path opacity="0.2" d="M129.875 118.696H340.124C339.41 116.554 338.697 114.413 337.864 112.271H132.016C131.302 114.413 130.47 116.554 129.875 118.696Z" stroke="#9B0E54" stroke-width="3" stroke-miterlimit="10"/>
<path opacity="0.2" d="M134.752 105.727H335.13C334.179 103.585 333.109 101.325 331.919 99.302H137.963C136.774 101.444 135.703 103.585 134.752 105.727Z" stroke="#9B0E54" stroke-width="3" stroke-miterlimit="10"/>
<path opacity="0.2" d="M137.963 99.3018H332.039C330.849 97.0411 329.66 94.8994 328.352 92.8767H141.649C140.341 95.0184 139.152 97.1601 137.963 99.3018Z" stroke="#9B0E54" stroke-width="3" stroke-miterlimit="10"/>
<path opacity="0.2" d="M132.018 112.271H337.866C337.034 110.129 336.082 107.988 335.131 105.846H134.753C133.801 107.869 132.85 110.01 132.018 112.271Z" stroke="#9B0E54" stroke-width="3" stroke-miterlimit="10"/>
</g>
<path d="M234.561 225.86C275.662 225.86 308.982 192.541 308.982 151.44C308.982 110.339 275.662 77.0195 234.561 77.0195C193.46 77.0195 160.141 110.339 160.141 151.44C160.141 192.541 193.46 225.86 234.561 225.86Z" fill="#FF6CA8"/>
<path d="M234.561 79.5991C274.157 79.5991 306.401 111.844 306.401 151.44C306.401 191.036 274.157 223.281 234.561 223.281C194.964 223.281 162.72 191.036 162.72 151.44C162.72 111.844 194.964 79.5991 234.561 79.5991ZM234.561 74.4399C192.127 74.4399 157.561 108.877 157.561 151.44C157.561 193.874 191.998 228.44 234.561 228.44C276.994 228.44 311.561 194.003 311.561 151.44C311.432 108.877 276.994 74.4399 234.561 74.4399Z" fill="#9B0E54"/>
<path d="M233.196 125.494C233.688 126.232 234.548 126.478 235.409 126.109C235.655 125.986 235.901 125.74 236.024 125.494L240.696 117.379C241.188 116.642 240.819 115.658 240.081 115.166C239.835 115.043 239.589 114.92 239.343 114.92H229.999C229.138 114.92 228.4 115.658 228.4 116.519C228.4 116.765 228.523 117.01 228.646 117.256L233.196 125.494ZM236.515 118.24L234.548 121.56L232.581 118.24H236.515Z" fill="#9B0E54"/>
<path d="M215.489 132.134L224.834 132.011C225.694 132.011 226.432 131.273 226.432 130.412C226.432 130.166 226.309 129.921 226.186 129.675L221.391 121.683C220.899 120.945 219.916 120.699 219.178 121.191C218.932 121.314 218.809 121.56 218.563 121.805L214.014 130.044C213.645 130.781 213.891 131.765 214.751 132.134C214.997 132.011 215.243 132.134 215.489 132.134ZM220.038 125.494L222.006 128.814L218.071 128.937L220.038 125.494Z" fill="#9B0E54"/>
<path d="M244.261 132.011L253.605 132.134C254.466 132.134 255.204 131.396 255.204 130.536C255.204 130.29 255.081 130.044 254.958 129.798L250.409 121.56C250.04 120.822 249.056 120.576 248.318 120.945C248.072 121.068 247.826 121.314 247.703 121.56L242.908 129.552C242.416 130.29 242.662 131.273 243.4 131.765C243.646 131.888 243.892 132.011 244.261 132.011ZM249.056 125.617L250.9 129.06L246.966 128.937L249.056 125.617Z" fill="#9B0E54"/>
<path d="M228.399 166.439L230.243 165.086C231.104 164.471 231.719 163.488 231.965 162.381C232.21 161.029 231.842 159.676 230.858 158.692C229.874 157.709 228.522 157.217 227.169 157.34H227.046C224.587 157.586 222.374 158.446 220.284 159.799L219.546 160.291C219.423 160.414 219.054 160.414 218.931 160.168C218.931 160.045 218.808 160.045 218.808 159.922V143.2C218.808 140.495 216.595 138.405 214.013 138.405C213.521 138.405 213.029 138.528 212.537 138.651C211.185 136.437 208.111 135.7 205.898 137.175C205.283 137.544 204.791 138.036 204.422 138.651C201.963 137.79 199.135 139.142 198.275 141.724C198.152 142.216 198.029 142.708 198.029 143.2V145.413C195.447 145.044 193.233 146.889 192.865 149.348C192.865 149.594 192.865 149.717 192.865 149.963V174.431C192.865 175.414 193.11 176.398 193.602 177.382C192.496 178.242 191.881 179.472 191.881 180.824V182.054C191.881 184.513 193.848 186.48 196.307 186.48H215.488C217.948 186.48 219.915 184.513 219.915 182.054V180.824C219.915 179.964 219.669 178.98 219.054 178.242C219.423 177.751 219.792 177.259 219.915 176.767L220.038 176.521C222.251 172.709 224.956 169.267 228.399 166.439ZM216.103 182.177C216.103 182.423 215.98 182.546 215.734 182.546H196.553C196.307 182.546 196.184 182.423 196.184 182.177V180.947C196.184 180.702 196.307 180.579 196.553 180.579H215.734C215.98 180.579 216.103 180.702 216.103 180.947V182.177ZM216.595 175.169L216.472 175.414C216.103 176.152 215.488 176.644 214.628 176.644H199.012C197.906 176.644 197.045 175.783 197.045 174.677V150.085C197.045 149.717 197.291 149.471 197.66 149.471C198.029 149.471 198.275 149.717 198.275 150.085V154.881C198.275 155.987 199.135 156.848 200.242 156.848C201.348 156.848 202.209 155.987 202.209 154.881V143.323C202.209 142.831 202.578 142.462 203.07 142.462C203.562 142.462 203.931 142.831 203.931 143.323V154.512C203.931 155.619 204.791 156.479 205.898 156.479C207.004 156.479 207.865 155.619 207.865 154.512V141.356C207.865 140.864 208.234 140.495 208.726 140.495C209.218 140.495 209.587 140.864 209.587 141.356V154.635C209.587 155.741 210.447 156.602 211.554 156.602C212.66 156.602 213.521 155.741 213.521 154.635V143.446C213.521 142.954 213.89 142.585 214.382 142.585C214.874 142.585 215.243 142.954 215.243 143.446V160.168C215.243 160.783 215.365 161.274 215.611 161.766C215.243 161.766 214.997 161.766 214.628 161.643C213.521 161.397 212.537 162.135 212.292 163.242C212.046 164.348 212.783 165.332 213.89 165.578C214.505 165.701 214.997 165.701 215.611 165.701C217.948 165.701 220.161 164.963 222.128 163.734L222.866 163.242C224.341 162.258 226.063 161.643 227.907 161.397H228.03C228.153 161.397 228.153 161.397 228.276 161.52C228.276 161.52 228.399 161.643 228.276 161.766C228.276 161.889 228.153 162.012 228.153 162.012L226.309 163.365C222.005 166.439 218.808 170.496 216.595 175.169Z" fill="#9B0E54"/>
<path d="M248.686 176.767L248.809 177.013C249.055 177.505 249.301 177.997 249.67 178.488C249.178 179.226 248.809 180.087 248.809 181.07V182.3C248.809 184.759 250.776 186.726 253.235 186.726H272.417C274.876 186.726 276.843 184.759 276.843 182.3V181.07C276.843 179.718 276.228 178.365 275.122 177.628C275.613 176.767 275.859 175.783 275.859 174.677V150.086C275.859 149.84 275.859 149.717 275.859 149.471C275.49 146.889 273.154 145.167 270.695 145.536V143.323C270.695 142.831 270.572 142.339 270.449 141.847C269.589 139.388 266.884 138.036 264.301 138.774C263.933 138.159 263.441 137.667 262.826 137.298C260.613 135.946 257.662 136.56 256.186 138.774C255.695 138.651 255.203 138.528 254.711 138.528C252.006 138.528 249.916 140.741 249.916 143.323V160.045C249.916 160.168 249.916 160.168 249.793 160.291C249.67 160.414 249.424 160.537 249.178 160.414L248.44 159.922C246.473 158.57 244.137 157.709 241.678 157.463H241.555C240.202 157.34 238.85 157.832 237.866 158.815C236.882 159.799 236.513 161.152 236.759 162.504C237.005 163.611 237.62 164.594 238.481 165.209L240.325 166.562C244.137 169.267 246.842 172.709 248.686 176.767ZM252.99 180.948C252.99 180.702 253.112 180.579 253.358 180.579H272.54C272.785 180.579 272.908 180.702 272.908 180.948V182.177C272.908 182.423 272.785 182.546 272.54 182.546H253.358C253.112 182.546 252.99 182.423 252.99 182.177V180.948ZM252.498 175.169C250.284 170.496 247.088 166.439 243.03 163.242L241.186 161.889C241.063 161.766 241.063 161.766 241.063 161.643C241.063 161.52 241.063 161.52 241.063 161.397C241.186 161.275 241.186 161.275 241.309 161.275H241.432C243.276 161.52 244.874 162.135 246.473 163.119L247.211 163.611C249.178 164.84 251.391 165.578 253.727 165.578C254.342 165.578 254.834 165.578 255.449 165.455C256.555 165.209 257.293 164.225 257.047 163.119C256.801 162.012 255.818 161.275 254.711 161.52C254.342 161.52 254.096 161.643 253.727 161.643C253.973 161.152 254.096 160.537 254.096 160.045V143.323C254.096 142.831 254.465 142.462 254.957 142.462C255.449 142.462 255.818 142.831 255.818 143.323V154.512C255.818 155.619 256.678 156.479 257.785 156.479C258.891 156.479 259.752 155.619 259.752 154.512V141.233C259.752 140.741 260.121 140.372 260.613 140.372C261.105 140.372 261.473 140.741 261.473 141.233V154.389C261.473 155.496 262.334 156.356 263.441 156.356C264.547 156.356 265.408 155.496 265.408 154.389V143.2C265.408 142.708 265.777 142.339 266.269 142.339C266.761 142.339 267.129 142.708 267.129 143.2V154.758C267.129 155.864 267.99 156.725 269.097 156.725C270.203 156.725 271.064 155.864 271.064 154.758V150.086C271.064 149.717 271.31 149.471 271.679 149.471C272.048 149.471 272.294 149.717 272.294 150.086V174.554C272.294 175.66 271.433 176.521 270.326 176.521H254.711C253.973 176.521 253.235 176.029 252.867 175.292L252.498 175.169Z" fill="#9B0E54"/>
<path d="M178.756 323.96C178.756 323.64 178.564 322.616 178.116 322.616C177.54 322.616 177.412 323 177.412 323.576C177.412 327.928 161.86 323.64 156.356 321.848C157.188 321.016 159.108 318.84 159.684 319.288C161.796 319.928 161.284 316.792 159.236 317.432H159.3C157.892 317.432 155.14 320.632 154.564 321.336C150.468 320.184 141.38 316.408 133.7 315.768C109.7 313.592 104.836 337.144 117.892 341.688C123.908 343.736 131.204 340.088 132.036 333.24C132.036 332.408 131.396 332.152 130.756 332.728V332.856C131.012 334.648 126.404 342.584 118.532 340.088C108.484 336.888 115.844 318.136 134.148 319.032C140.996 319.352 146.82 320.44 153.54 322.552C150.852 326.136 142.468 348.728 134.724 357.112C129.86 362.424 123.012 366.456 112.964 366.712C103.108 366.904 91.2682 359.864 93.5723 346.744C94.5963 340.664 99.1403 339.192 100.164 337.912C100.548 335.224 94.2123 337.848 92.2923 343.8C83.6522 371.128 124.228 375.608 137.796 360.184C147.204 349.432 147.716 335.416 155.396 323.192C156.74 323.768 162.052 326.072 171.524 327.288C175.556 327.8 178.756 326.392 178.756 323.96ZM173.634 351.288C174.274 349.944 173.314 349.496 172.738 350.648C171.394 353.4 167.042 362.104 164.098 361.912C163.266 361.848 162.626 361.144 163.138 358.52C163.97 354.04 170.818 342.008 170.818 342.008C168.642 341.24 162.05 345.272 158.978 348.024C157.25 349.496 155.522 351.48 153.794 353.656C159.042 342.968 167.362 327.288 170.178 324.408C169.282 324.536 168.322 324.216 167.49 324.152C165.442 324.024 164.418 325.496 162.946 328.184C156.738 339.64 150.53 352.696 145.346 363.448C145.986 363.064 146.562 363.128 147.522 363.064C148.866 363.064 149.442 363 149.89 362.104C153.538 355 156.674 351.416 158.85 349.432C163.778 344.824 164.93 346.552 163.394 349.048C161.602 351.928 160.386 354.104 159.874 355.768C157.954 361.72 161.026 363.256 163.266 363.256C168.002 363.256 171.522 355.704 173.634 351.288ZM196.1 351.224C196.74 349.944 195.78 349.56 195.204 350.712C193.86 353.464 189.636 361.592 186.948 361.464C186.116 361.464 185.796 360.248 186.308 357.624C187.14 353.72 190.916 347 192.26 345.656C191.364 345.848 190.404 345.464 189.572 345.4C187.524 345.272 186.628 346.808 185.22 349.496C183.556 352.632 181.764 355.768 179.524 358.456C176.516 362.04 172.996 362.552 173.636 358.072C174.02 355.64 175.748 352.504 176.26 351.608C178.564 347.832 181.892 344.056 184.772 342.456C187.14 341.176 189.508 341.688 190.212 344.056C191.3 344.248 191.812 343.16 190.916 342.2C187.268 338.232 179.908 340.6 176.068 345.144C166.404 356.728 171.268 367.928 178.628 360.888C180.484 359.096 182.212 356.536 183.236 354.872C181.316 361.592 184.324 363.256 186.436 363.128C190.276 362.808 194.18 355.128 196.1 351.224ZM217.515 351.224C218.155 349.944 217.131 349.496 216.619 350.648C215.275 353.336 211.179 361.72 207.851 361.72C207.019 361.72 206.315 361.144 206.827 358.52C207.659 354.04 214.507 342.008 214.507 342.008C212.331 341.24 205.739 345.272 202.667 348.024C200.683 349.752 198.635 352.184 197.355 353.784C199.659 349.176 203.179 342.776 205.099 341.752C204.203 341.944 203.243 341.56 202.411 341.496C200.363 341.368 199.531 342.456 197.867 345.528C194.731 351.288 192.107 357.368 189.035 363.448C189.675 363.064 190.251 363.128 191.211 363.064C192.555 363.064 193.131 363 193.643 362.104C197.227 355 200.363 351.416 202.539 349.432C207.467 344.824 208.619 346.552 207.083 349.048C205.291 351.928 204.075 354.104 203.563 355.768C201.643 361.72 204.715 363.256 206.955 363.256C211.883 363.256 215.595 355.128 217.515 351.224ZM229.737 326.584C224.233 334.776 215.785 353.912 211.433 359.672C211.049 360.248 211.433 360.952 211.945 360.504C213.225 359.288 215.785 354.68 218.729 349.112C216.809 353.528 214.633 357.176 213.481 361.592C213.225 362.424 213.097 363 213.993 363H218.025C216.937 362.104 218.665 355.192 219.817 353.016C221.545 350.584 223.401 348.664 225.065 347.192C232.425 340.92 235.241 345.4 231.209 348.664C229.737 349.88 227.561 350.712 226.153 350.584C224.745 350.712 222.377 353.784 223.145 357.944C223.785 361.272 225.769 363.128 228.073 363.384C231.785 363.768 235.753 362.744 240.809 351.096C241.257 350.072 240.489 349.496 239.977 350.52C238.185 354.232 236.393 357.56 234.793 359.288C228.905 365.56 224.809 357.56 227.241 351.608C230.057 351.352 231.785 350.456 233.705 349.112C238.569 345.656 239.337 338.488 231.081 341.56C227.369 342.968 223.337 347.192 220.649 350.52C221.289 348.6 222.121 346.744 222.953 345.08C227.241 336.568 233.769 326.2 237.033 323.704C236.137 323.896 235.177 323.512 234.345 323.448H234.025C232.617 323.384 231.273 324.344 229.737 326.584ZM324.461 364.856C323.949 363.192 323.565 363.832 323.693 364.792C322.413 371.896 311.149 370.808 304.877 371.192C309.613 362.808 314.029 348.216 316.269 338.36C318.445 328.824 313.453 332.728 313.133 334.264C311.149 340.92 304.621 356.92 296.685 362.552C291.693 366.136 285.805 365.624 287.469 357.944C288.749 352.12 293.165 343.352 297.453 336.056C303.213 326.328 305.965 314.616 296.557 310.392C285.357 305.336 264.045 315.768 256.493 331.32C248.685 347.32 260.781 357.752 270.957 353.528C285.293 347.64 289.709 328.184 276.205 331.832C275.053 332.088 274.157 333.176 276.333 332.728C287.469 330.744 280.109 348.856 271.213 352.056C262.893 355.064 253.229 348.792 259.821 332.984C265.773 318.84 286.509 305.848 296.813 312.44C301.741 315.576 298.029 327.608 292.333 336.888C288.813 342.648 283.885 351.16 282.989 357.56C281.709 367.288 291.053 368.312 297.581 363.896C303.533 359.864 308.141 351.736 310.573 346.488C308.269 355.064 305.133 363.064 301.805 371.256C292.525 371.256 282.861 371.768 274.157 375.352C258.157 381.944 269.485 392.888 286.189 386.488C292.717 383.992 299.629 379.32 303.917 372.856C310.381 372.792 316.525 372.728 319.853 371.384C323.757 369.72 324.973 366.52 324.461 364.856ZM300.909 372.856C297.069 379 290.925 383.032 285.229 385.144C274.989 388.92 262.637 385.208 275.181 378.04C282.797 373.624 292.269 372.856 300.909 372.856ZM340.268 350.968C340.716 350.008 339.628 349.752 339.308 350.392C337.772 353.464 334.444 361.4 330.348 361.4C328.812 361.4 327.852 360.76 327.34 359.8C329.772 357.496 331.756 354.488 332.716 352.248C335.148 346.552 334.444 340.664 329.58 340.6C325.228 340.472 319.916 345.464 317.42 351.352C314.988 357.048 315.692 362.872 320.556 363C322.412 363.064 324.332 362.168 326.124 360.824C326.956 361.784 328.3 362.488 330.22 362.488C335.596 362.488 339.18 353.4 340.268 350.968ZM330.924 342.712C333.228 343.416 332.908 347.96 330.412 353.208C329.836 354.424 329.132 355.64 328.428 356.664C328.492 356.408 328.556 356.216 328.556 355.96C328.556 354.936 327.724 354.04 326.636 354.04C325.036 354.04 324.46 355.32 324.396 356.792C324.396 357.752 324.716 358.904 325.42 359.928C323.884 361.208 322.284 361.848 321.068 361.528C318.764 360.824 319.34 356.344 321.836 351.096C324.204 346.04 328.172 341.944 330.924 342.712ZM362.986 351.224C363.626 349.944 362.602 349.496 362.09 350.648C359.914 355.256 356.714 361.336 353.578 361.336C352.682 361.272 351.786 360.248 352.362 357.496C352.746 355.32 354.858 350.904 356.65 347.32C358.57 343.352 359.21 342.456 361.066 340.984H357.61C356.394 340.984 355.626 341.304 355.114 342.328C352.682 347.384 349.162 354.872 345.578 359.032C341.418 363.832 338.73 361.272 341.802 354.616C342.954 352.184 345.834 346.36 345.834 346.36C347.562 342.84 348.458 342.072 349.93 340.984H346.026C344.81 340.984 344.042 341.304 343.53 342.328C342.57 344.312 341.226 346.936 339.946 349.368L338.794 351.608C338.41 352.44 338.986 352.632 339.37 352.632C338.218 354.936 336.618 357.304 337.194 360.056C337.706 362.488 339.946 362.936 341.226 362.936C344.362 362.936 347.69 358.584 349.866 354.744C348.202 359.928 349.93 362.936 352.81 362.936C357.482 362.936 360.938 355.576 362.986 351.224ZM393.029 323.896L392.901 323.512L392.581 323.384C390.917 323.448 388.165 322.936 387.269 324.664L371.013 355.64L370.949 356.088L371.589 356.152C373.957 352.568 392.325 325.816 393.029 323.896ZM371.397 361.272C371.653 359.8 370.629 358.648 369.221 358.648C367.749 358.648 366.341 359.8 366.149 361.272C365.893 362.744 366.853 363.896 368.325 363.896C369.797 363.896 371.141 362.744 371.397 361.272Z" fill="white"/>
<defs>
<linearGradient id="paint0_linear" x1="235.438" y1="276.141" x2="234.999" y2="420" gradientUnits="userSpaceOnUse">
<stop stop-color="#9B0E54" stop-opacity="0.3"/>
<stop offset="1" stop-color="#9B0E54"/>
</linearGradient>
</defs>
</svg>
