<svg width="80" height="80" viewBox="0 0 80 80" fill="none" xmlns="http://www.w3.org/2000/svg">
<circle cx="40" cy="40" r="40" fill="#DDE0EF"/>
<path d="M40 40C43.584 40 46.5 37.084 46.5 33.5C46.5 29.916 43.584 27 40 27C36.416 27 33.5 29.916 33.5 33.5C33.5 37.084 36.416 40 40 40ZM40 29C42.481 29 44.5 31.019 44.5 33.5C44.5 35.981 42.481 38 40 38C37.519 38 35.5 35.981 35.5 33.5C35.5 31.019 37.519 29 40 29Z" fill="#A8A9B7"/>
<path d="M32 54H34V50C34 46.691 36.691 44 40 44C43.309 44 46 46.691 46 50V54H48V50C48 45.589 44.411 42 40 42C35.589 42 32 45.589 32 50V54Z" fill="#A8A9B7"/>
</svg>
