<svg width="157" height="60" viewBox="0 0 157 60" fill="none" xmlns="http://www.w3.org/2000/svg">
<path d="M127 0H30C13.4315 0 0 13.4315 0 30C0 46.5685 13.4315 60 30 60H127C143.569 60 157 46.5685 157 30C157 13.4315 143.569 0 127 0Z" fill="white"/>
<path d="M58.3964 36L54.3027 24.5469H56.8105L59.7089 33.0234L62.5136 24.5469H64.9668L60.8652 36H58.3964ZM67.2777 30.3438C67.2777 29.1771 67.4522 28.1979 67.8011 27.4062C68.0616 26.8229 68.4157 26.2995 68.8636 25.8359C69.3168 25.3724 69.8116 25.0286 70.348 24.8047C71.0616 24.5026 71.8845 24.3516 72.8168 24.3516C74.5043 24.3516 75.8532 24.875 76.8636 25.9219C77.8793 26.9688 78.3871 28.4245 78.3871 30.2891C78.3871 32.138 77.8845 33.5859 76.8793 34.6328C75.8741 35.6745 74.5303 36.1953 72.848 36.1953C71.1449 36.1953 69.7907 35.6771 68.7855 34.6406C67.7803 33.599 67.2777 32.1667 67.2777 30.3438ZM69.6605 30.2656C69.6605 31.5625 69.96 32.5469 70.5589 33.2188C71.1579 33.8854 71.9183 34.2188 72.8402 34.2188C73.7621 34.2188 74.5173 33.888 75.1058 33.2266C75.6996 32.5599 75.9964 31.5625 75.9964 30.2344C75.9964 28.9219 75.7074 27.9427 75.1293 27.2969C74.5563 26.651 73.7933 26.3281 72.8402 26.3281C71.8871 26.3281 71.1188 26.6562 70.5355 27.3125C69.9522 27.9635 69.6605 28.9479 69.6605 30.2656ZM84.3777 36V26.4844H80.9793V24.5469H90.0808V26.4844H86.6902V36H84.3777ZM93.1808 36V24.5469H101.673V26.4844H95.4933V29.0234H101.243V30.9531H95.4933V34.0703H101.892V36H93.1808Z" fill="#30313B"/>
</svg>
